<?xml version="1.0" encoding="utf-8"?>
<!-- Generator: Adobe Illustrator 17.1.0, SVG Export Plug-In . SVG Version: 6.00 Build 0)  -->
<!DOCTYPE svg PUBLIC "-//W3C//DTD SVG 1.1//EN" "http://www.w3.org/Graphics/SVG/1.1/DTD/svg11.dtd">
<svg version="1.1" id="Layer_1" xmlns="http://www.w3.org/2000/svg" xmlns:xlink="http://www.w3.org/1999/xlink" x="0px" y="0px"
	 viewBox="0 0 600 350" enable-background="new 0 0 600 350" xml:space="preserve">
<path fill="#FFFFFF" stroke="#010101" stroke-width="1.2655" stroke-miterlimit="10" d="M314.2,156.3c0,2-1.6,3.6-3.5,3.6
	l-102.9,0.5c-1.9,0-3.4-1.6-3.5-3.6L203.9,85c0-2,1.5-3.5,3.4-3.5L310.3,81c1.9,0,3.5,1.6,3.5,3.5L314.2,156.3z"/>
<ellipse transform="matrix(1 -4.963813e-03 4.963813e-03 1 -1.0017 1.3002)" fill="#161616" cx="261.4" cy="202.5" rx="31.7" ry="13"/>
<path fill="none" stroke="#111111" stroke-width="0.4218" stroke-miterlimit="10" d="M242.6,153.3"/>
<path fill="#010101" stroke="#FFFFFF" stroke-width="0.1406" stroke-miterlimit="10" d="M254.9,159.7l21.3-0.1
	c0,0-10.2,16.5-7.7,30.8c1.7,9.6,16,15.8,16,15.8l-43.5,0.2c0,0,12-9.6,12.4-20.5c0.4-10.9-12.6-26.1-12.6-26.1l13-0.1"/>
<g>
	<path fill="none" stroke="#4D54A4" stroke-width="0.4218" stroke-miterlimit="10" d="M300.8,142.8c-0.9,0.6-1.3,1.6-1,2.5"/>
	<path fill="none" stroke="#4D54A4" stroke-width="0.4218" stroke-miterlimit="10" d="M302.3,142.8c0.2,0,0.5,0.1,0.6,0.2
		c0.8,0.6,1.2,1.5,1.1,2.3"/>
	<path fill="none" stroke="#4D54A4" stroke-width="0.4218" stroke-miterlimit="10" d="M299.5,145.1c1.4,0,2.8,0,4.2,0.1"/>
	<path fill="none" stroke="#4D54A4" stroke-width="0.4218" stroke-miterlimit="10" d="M300,141.4c-1.6,0-3.2,0.2-4.8,0.5"/>
	<path fill="none" stroke="#4D54A4" stroke-width="0.4218" stroke-miterlimit="10" d="M291.2,143.6c-0.9,0.1-1.7,0.1-2.6,0.1
		c-0.2-1.2-0.5-2.4-0.7-3.6c1.9,0,3.7-0.1,5.6-0.1c0.3,1,0.5,2.1,0.7,3.2c-0.7,0.1-2.5,0.1-2.9,0.5c-0.1,0.2,0,0.8-0.2,1
		c-0.2,0.3-0.4,0.6-0.8,0.9"/>
	<path fill="none" stroke="#4D54A4" stroke-width="0.4218" stroke-miterlimit="10" d="M292.6,143.5c-0.4,0.9,0.4,2,1.5,2.2"/>
	<path fill="none" stroke="#4D54A4" stroke-width="0.4218" stroke-miterlimit="10" d="M290.3,139.8c-0.2-3.6-0.4-7.1-0.5-10.7
		c-0.2-4.6-0.5-9.2-1.9-13.7"/>
	<path fill="none" stroke="#4D54A4" stroke-width="0.4218" stroke-miterlimit="10" d="M300.2,113.3c0,0.2,0,0.5-0.2,0.7
		c-0.1,0.2-0.4,0.2-0.6,0.3c-0.9,0.3-2,0.4-3,0.3c0.3,0.2,0.2,0.7-0.1,0.9c-0.3,0.2-0.8,0.3-1.3,0.3c-1,0.1-2.1,0.2-3.1,0.1
		c-1-0.1-2.1-0.4-2.7-1c-1.3,0.5-2.8,0.8-4.2,0.8c-1.5-0.1-2.9-0.5-3.8-1.5c-1,0.5-2.1,0.8-3.3,0.8c-0.8-0.9-0.5-2.3,0.4-3.1
		c0.9-0.9,2.3-1.3,3.7-1.6c-0.9-0.2-1-1.2-0.5-1.7c0.5-0.6,1.5-0.8,2.3-1c1.6-0.3,3.4-0.6,4.9-0.1c-0.3-0.4,0.4-0.8,0.9-0.9
		c1-0.3,2-0.4,3-0.3c0.3,0,0.6,0,0.8,0.2c0.2,0.1,0.3,0.3,0.4,0.4c1.2,1.2,4,0.2,5.2,1.3c0.4,0.4,0.5,1.1,0.1,1.5
		c-0.4,0.4-1.1,0.7-1.8,0.5C298.8,110.9,300,112,300.2,113.3z"/>
	<path fill="none" stroke="#4D54A4" stroke-width="0.4218" stroke-miterlimit="10" d="M285,111.6c0.1-1,0.4-1.9,1-2.8
		c0.4,0.2,0.7,0.5,0.9,0.9c0.3,0.5,0.4,1.1,0.9,1.5"/>
	<path fill="none" stroke="#4D54A4" stroke-width="0.4218" stroke-miterlimit="10" d="M285.3,110.2"/>
	<path fill="none" stroke="#4D54A4" stroke-width="0.4218" stroke-miterlimit="10" d="M285.2,110.5c0.6,0.1,1.2,0,1.7-0.1"/>
	<path fill="none" stroke="#4D54A4" stroke-miterlimit="10" d="M288.6,111.3V109c0,0,0.6-0.3,0.9-0.3c0.3,0,0.6,0.2,0.7,0.4
		c0.1,0.3-0.2,0.7-0.5,0.8c-0.4,0.1-0.8,0.1-1.2,0.1"/>
	<path fill="none" stroke="#4D54A4" stroke-width="0.4218" stroke-miterlimit="10" d="M291.3,108.6c0,0.8,0.1,1.7,0.1,2.5"/>
	<path fill="none" stroke="#4D54A4" stroke-width="0.4218" stroke-miterlimit="10" d="M279.7,110.7c-4.5,0-9,0.2-13.4,0.5"/>
	<path fill="none" stroke="#4D54A4" stroke-width="0.4218" stroke-miterlimit="10" d="M265.2,112c-0.8,0.9-1.6,1.9-2.7,2.5
		c-0.4,0.3-0.9,0.5-1.5,0.5c-1.2,0.1-2.3-0.7-2.7-1.6c-0.8-1.4-0.5-3.1,0.6-4.3c1.1-1.2,3-2,4.9-2.1c0.3,0,0.5,0,0.8,0.1
		c0.4,0.2,0.7,0.5,0.8,0.9c0.2,0.8,0.1,1.6-0.4,2.3"/>
	<path fill="none" stroke="#4D54A4" stroke-width="0.4218" stroke-miterlimit="10" d="M263.5,108.8c0.1,0.6,0.9,1,1.1,1.5
		c0.7-0.2,1.6-0.5,2.3-0.8"/>
	<path fill="none" stroke="#4D54A4" stroke-width="0.4218" stroke-miterlimit="10" d="M291.2,141c-0.3,0.5-0.6,1.1-0.8,1.7"/>
	<path fill="none" stroke="#4D54A4" stroke-width="0.4218" stroke-miterlimit="10" d="M291.6,141.2c0.5,0,1.1,0.2,1.4,0.6
		c-0.5,0.5-1,0.9-1.6,1.2"/>
	<path fill="none" stroke="#4D54A4" stroke-width="0.4218" stroke-miterlimit="10" d="M290.2,141.2c-0.4,0-0.9,0.2-1.2,0.6
		c0.4,0.5,0.8,0.9,1.3,1.2"/>
	<path fill="none" stroke="#4D54A4" stroke-width="0.4218" stroke-miterlimit="10" d="M259.2,111.4c1.5,0,2.9,0,4.3,0.1"/>
	<path fill="none" stroke="#4D54A4" stroke-width="0.4218" stroke-miterlimit="10" d="M259.8,110.7c0.1-0.1,0.3,0.1,0.3,0.3
		c-0.1,0-0.2,0-0.2,0s-0.1-0.1,0-0.1"/>
	<path fill="none" stroke="#4D54A4" stroke-width="0.4125" stroke-miterlimit="10" d="M261.1,110.6c0,0,0.2,0,0.3,0
		c0,0.2,0,0.3,0,0.4c-0.3,0-0.8-0.2-0.7-0.4C260.9,110.5,261,110.5,261.1,110.6"/>
	<path fill="none" stroke="#4D54A4" stroke-width="0.4218" stroke-miterlimit="10" d="M262.7,110.7c-0.1,0-0.2,0-0.3,0
		c-0.1,0.2,0.2,0.4,0.4,0.3c0.1-0.2,0-0.4-0.1-0.5"/>
	<path fill="none" stroke="#4D54A4" stroke-width="0.4218" stroke-miterlimit="10" d="M287.9,115.9c-0.3,0.6-0.6,1.3-1,1.9"/>
	<path fill="none" stroke="#4D54A4" stroke-width="0.4218" stroke-miterlimit="10" d="M288.1,115.8c0.8,0.7,1.7,1.4,2.5,2"/>
	<path fill="none" stroke="#4D54A4" stroke-width="0.4218" stroke-miterlimit="10" d="M264.2,114.3c4.2,8.3,10,16.1,17.1,23
		c1.4,1.4,3,2.8,5.1,3.2"/>
	<path fill="none" stroke="#4D54A4" stroke-width="0.4218" stroke-miterlimit="10" d="M286,138.8c0.2,0.6,0.4,1.3,0.4,1.9
		c-0.9,0-1.9,0.2-2.8,0.2"/>
	<path fill="none" stroke="#4D54A4" stroke-width="0.4218" stroke-miterlimit="10" d="M292.7,139.1c2.7-3.1,5.4-6.3,8.1-9.4"/>
	<path fill="none" stroke="#4D54A4" stroke-width="0.4218" stroke-miterlimit="10" d="M301.4,128.3c0,0.3,0.2,0.5,0.5,0.7
		c0.4,0.2,0.9,0.2,1.4,0.2c0.5,0,1.1,0,1.6,0c0.5,0,1.1,0,1.4-0.3c0.5-0.4,0.1-1.1-0.5-1.4s-1.4-0.3-2.1-0.3c-0.4,0-0.8,0-1.3,0
		c-0.2,0-0.4,0-0.5,0.1c-1.6,1.3-0.8,4.4-0.8,6.1c1.5,0.4,3.2,0.3,4.8,0.3c0.2,0,0.6-0.1,0.4-0.3"/>
	<path fill="none" stroke="#4D54A4" stroke-width="0.4218" stroke-miterlimit="10" d="M306.4,128.9c-0.1,1.6,0,3.2,0.2,4.7"/>
	<path fill="none" stroke="#4D54A4" stroke-width="0.4218" stroke-miterlimit="10" d="M300.1,129.7c-2.4-2.2-5-4.2-7.8-6
		c-1-0.7-2.1-1.3-2.7-2.3"/>
	<path fill="none" stroke="#4D54A4" stroke-width="0.4218" stroke-miterlimit="10" d="M295.5,123.9c0.6,0,1.2,0,1.9-0.1
		c0.1,0.3,0.1,0.6,0.1,0.9c0,0,0,0,0,0s0,0,0,0c-0.2,0.3-0.5,0.5-0.7,0.8c-0.4-0.2-0.7-0.4-1-0.6c0,0-0.1,0-0.1-0.1c0,0,0-0.1,0-0.1
		C295.6,124.4,295.6,124.2,295.5,123.9z"/>
	<g>
		<path fill="none" stroke="#4D54A4" stroke-width="0.2812" stroke-miterlimit="10" d="M273.9,138.5c0.3,0,0.5,0,0.8,0
			c0.3,0,0.5,0,0.8-0.1"/>
		<path fill="none" stroke="#4D54A4" stroke-width="0.2812" stroke-miterlimit="10" d="M274.7,138.6c0.1,0.3,0.1,0.6,0.2,0.9
			c-0.1,0.1-0.3,0.2-0.4,0.2c-0.2,0-0.3-0.1-0.3-0.2"/>
		<path fill="none" stroke="#4D54A4" stroke-width="0.2812" stroke-miterlimit="10" d="M276.3,138.3c-0.1-0.1-0.3,0-0.4,0.1
			c-0.1,0.1-0.1,0.2,0,0.4c0.2,0,0.4,0.1,0.6,0.2s0.2,0.3,0.1,0.5c-0.1,0.1-0.3,0.1-0.5,0.1c-0.2,0-0.4,0-0.4-0.1"/>
		<path fill="none" stroke="#4D54A4" stroke-width="0.2812" stroke-miterlimit="10" d="M277.7,138.4c-0.1,0-0.1,0-0.2,0
			c-0.2,0-0.3,0-0.5,0c0,0.3-0.1,0.6,0,0.8c0.1,0.3,0.4,0.5,0.8,0.4c0.1-0.3,0.2-0.6,0.1-0.9C277.9,138.6,277.9,138.4,277.7,138.4z"
			/>
		<line fill="none" stroke="#4D54A4" stroke-miterlimit="10" x1="278.6" y1="138.3" x2="278.6" y2="139.3"/>
		<path fill="none" stroke="#4D54A4" stroke-width="0.2812" stroke-miterlimit="10" d="M278.8,138.3c0.4,0.4,0.7,0.8,1,1.3"/>
		<path fill="none" stroke="#4D54A4" stroke-width="0.2812" stroke-miterlimit="10" d="M279.7,139.5c0-0.5,0-0.9,0.1-1.4"/>
	</g>
	<line fill="none" stroke="#4D54A4" stroke-miterlimit="10" x1="302.6" y1="130.3" x2="302.6" y2="132.3"/>
	<path fill="none" stroke="#4D54A4" stroke-width="0.2812" stroke-miterlimit="10" d="M303.5,130.6c0.4-0.2,0.9,0,1.1,0.3
		c0.2,0.3,0.1,0.7,0,1.1c-0.3,0-0.6,0-0.9,0.1"/>
	<path fill="none" stroke="#4D54A4" stroke-width="0.2812" stroke-miterlimit="10" d="M302.7,130.4c0,0.7,0.1,1.3,0.1,2"/>
	<path fill="none" stroke="#4D54A4" stroke-width="0.2812" stroke-miterlimit="10" d="M298.3,122.6c0,0.4,0,0.7,0,1.1"/>
	<path fill="none" stroke="#4D54A4" stroke-width="0.2812" stroke-miterlimit="10" d="M299.2,123.4c0,0,0,0.1,0,0.1
		c0,0,0.1,0.1,0.1,0.1c0.1,0.1,0.3,0.1,0.4,0.1c0.1,0,0.2-0.1,0.2-0.2c0-0.1,0-0.2,0-0.2c0-0.1,0-0.3,0-0.4s-0.2-0.2-0.4-0.2
		c0,0-0.1,0-0.1,0c0,0,0,0,0,0c-0.1,0.1-0.2,0.3-0.2,0.4C299.2,123.2,299.2,123.3,299.2,123.4z"/>
	<path fill="none" stroke="#4D54A4" stroke-width="0.2812" stroke-miterlimit="10" d="M300.4,122.6c0,0.4,0,0.8,0,1.2"/>
	<path fill="none" stroke="#4D54A4" stroke-width="0.2812" stroke-miterlimit="10" d="M300.6,123.2c0.2-0.2,0.3-0.4,0.5-0.5"/>
	<path fill="none" stroke="#4D54A4" stroke-width="0.2812" stroke-miterlimit="10" d="M301.1,123.7c-0.1,0-0.1-0.1-0.2-0.2
		c-0.1-0.1-0.2-0.1-0.3-0.2c0,0-0.1-0.1-0.1-0.1"/>
	<path fill="none" stroke="#4D54A4" stroke-width="0.2812" stroke-miterlimit="10" d="M301.9,122.7c-0.2,0-0.4,0-0.6,0"/>
	<line fill="none" stroke="#4D54A4" stroke-width="0.6891" stroke-miterlimit="10" x1="301.7" y1="122.7" x2="301.7" y2="122.7"/>
	<line fill="none" stroke="#4D54A4" stroke-width="0.6891" stroke-miterlimit="10" x1="301.7" y1="124" x2="301.7" y2="124"/>
	<path fill="none" stroke="#4D54A4" stroke-width="0.2812" stroke-miterlimit="10" d="M301.3,122.6c0,0.4,0,0.7-0.1,1.1"/>
	<path fill="none" stroke="#4D54A4" stroke-width="0.2812" stroke-miterlimit="10" d="M302.2,122.6c0,0.3,0,0.5,0,0.8
		c0,0.1,0,0.2,0,0.4"/>
	<path fill="none" stroke="#4D54A4" stroke-width="0.2812" stroke-miterlimit="10" d="M302.3,122.6c0.1,0.1,0.1,0.2,0.2,0.2
		c0.1,0.2,0.3,0.4,0.4,0.5c0.1,0.1,0.1,0.2,0.2,0.3"/>
	<path fill="none" stroke="#4D54A4" stroke-width="0.2812" stroke-miterlimit="10" d="M303,123.6c0-0.4,0-0.7,0-1.1"/>
	<path fill="none" stroke="#4D54A4" stroke-width="0.2812" stroke-miterlimit="10" d="M299.2,122.6c-0.3,0-0.6,0-1,0
		c-0.1,0-0.2,0-0.2,0c-0.2,0-0.3,0.1-0.5,0"/>
	<path fill="none" stroke="#4D54A4" stroke-width="0.4218" stroke-miterlimit="10" d="M301.6,143.5c0.1,0,0.2,0,0.2,0
		c0.7-0.1,0.6-0.9,0.6-1.3c-0.1-0.7-0.5-1.3-1.5-1.3c-0.3,0-0.5,0.9-0.5,1.1c0,0.5,0.2,0.9,0.7,1.3
		C301.3,143.4,301.5,143.5,301.6,143.5z"/>
</g>
<path fill="#FFFFFF" stroke="#010101" stroke-width="0.4218" stroke-miterlimit="10" d="M225.8,209.3c0.6,0.4,1.6,0.7,2.3,0.6
	l83-9.4c0.7-0.1,0.8-0.5,0.3-0.9l-12.5-9.3c-0.6-0.4-1.6-0.7-2.3-0.6l-83,9.4c-0.7,0.1-0.8,0.5-0.3,0.9L225.8,209.3z"/>
<rect x="213.1" y="107.3" fill="#010101" width="38" height="25"/>
<text transform="matrix(0.9406 0 0 1 217.5535 126.8504)" fill="#F9F9FA" font-family="'MyriadPro-Regular'" font-size="19.4429">&lt;/&gt;</text>
<line fill="none" stroke="#454545" stroke-miterlimit="10" x1="214.1" y1="96.8" x2="306.1" y2="96.8"/>
<line fill="none" stroke="#454545" stroke-miterlimit="10" x1="211.1" y1="150.8" x2="303.1" y2="150.8"/>
<line fill="none" stroke="#454545" stroke-miterlimit="10" x1="211.1" y1="153.8" x2="303.1" y2="153.8"/>
<line fill="none" stroke="#454545" stroke-miterlimit="10" x1="211.1" y1="144.8" x2="253.1" y2="144.8"/>
<line fill="none" stroke="#454545" stroke-miterlimit="10" x1="211.1" y1="140.8" x2="253.1" y2="140.8"/>
<line fill="none" stroke="#454545" stroke-miterlimit="10" x1="214.1" y1="99.8" x2="306.1" y2="99.8"/>
<path fill="none" stroke="#010101" stroke-width="0.703" stroke-miterlimit="10" d="M213.8,201.8c-4.5,0.1-8.1-5.2-6.4-9.3
	c2.3-5.3,10.4-6.2,12.3-11.7c6.6-1.8,13.2-3.6,19.8-5.3"/>
<line fill="none" stroke="#010101" stroke-width="0.1406" stroke-miterlimit="10" x1="219" y1="202.5" x2="301.1" y2="193.9"/>
<line fill="none" stroke="#010101" stroke-width="0.1406" stroke-miterlimit="10" x1="221.8" y1="206.1" x2="303.9" y2="197.5"/>
<path d="M376.5,175.5c0,7.5-6,13.5-13.5,13.5c-7.5,0-13.5-6-13.5-13.5c0-7.4,6-13.5,13.5-13.5C370.4,162,376.5,168,376.5,175.5"/>
<polygon points="247.8,283.5 261.2,283.5 261.2,237.1 304.6,237.1 304.6,283.5 318,283.5 318,223.3 247.8,223.3 "/>
<polygon points="382.8,213.4 376.7,213.4 376.7,252.3 341,252.3 341,262.7 387.1,262.7 387.1,213.4 "/>
<path d="M370.3,248.3h1.5c1.4,0,2.6-3,2.6-6.8l0-47h-17.1l-4.7,3.3l-11.5,6.9l-19.6,0l1.9,0l-5.3,0.4l-1.5,6.2l2.5-0.3l-2.5,0.3
	c0.8,1.6,2.5,2.7,4.4,2.7h20.8l2.7-0.1l8.2-4.9v25.5l-23.6,0v0.1c-3.1,0.5-5.4,3.3-5.4,6.7v36c0,3.8,2.9,6.8,6.4,6.8
	c3.5,0,6.4-3,6.4-6.8l0-29L370.3,248.3z"/>
<path d="M291.2,222.7h21.6c1.9,0,3.4-1.2,3.4-2.8c0-1.5-1.5-2.8-3.4-2.8h-21.6c-1.9,0-3.4,1.2-3.4,2.8
	C287.8,221.5,289.3,222.7,291.2,222.7z"/>
<path d="M322.5,210.3c0,2.5-2,4.5-4.5,4.5l0,0c-2.5,0-4.5-2-4.5-4.5v-0.6c0-2.5,2-4.5,4.5-4.5l0,0c2.5,0,4.5,2,4.5,4.5V210.3z"/>
<text transform="matrix(1 0 0 1 340.9559 299.0916)" font-family="'MyriadPro-Regular'" font-size="12.4043">Developer</text>
<text transform="matrix(1 0 0 1 214.9568 92.9251)" font-family="'MyriadPro-Regular'" font-size="10.3369">Documentation</text>
<path d="M171.5,196.2c0.9,7.4,7.8,12.6,15.4,11.7c7.6-0.9,13-7.7,12.1-15.1c-0.9-7.4-7.8-12.6-15.4-11.7
	C176,182,170.6,188.8,171.5,196.2"/>
<polygon points="168.9,231.7 176.2,231.1 179.6,269.8 222.3,266.1 223.2,276.4 168.1,281.2 163.8,232.2 "/>
<path d="M186,266.9l-1.6,0.1c-1.5,0.1-3-2.8-3.3-6.5l-4.3-46.8l17.5-1.6l5.1,2.9l12.4,5.8l20-1.9L230,219l5.5-0.1l2.1,6l-2.6-0.1
	l2.6,0.1c-0.6,1.7-2.3,3-4.3,3.1l-21.2,2l-2.8,0.1l-8.8-4.2l2.4,25.4l24.1-2.2l0,0.1c3.2,0.2,5.9,2.8,6.2,6.2l3.3,35.8
	c0.3,3.8-2.3,7.1-5.9,7.4c-3.6,0.3-6.8-2.4-7.2-6.2l-2.7-28.8L186,266.9z"/>
<text transform="matrix(1 0 0 1 159.8309 321.0807)" font-family="'MyriadPro-Regular'" font-size="12.4043">Tech writer</text>
<polygon points="188.2,281.6 171.4,281.6 171.4,298.6 175.4,298.6 175.4,285.5 201.8,285.5 201.8,298.6 205.7,298.6 205.7,281.6 "/>
<polygon points="374.2,266.4 357.5,266.4 357.5,283.4 361.4,283.4 361.4,270.3 387.8,270.3 387.8,283.4 391.7,283.4 391.7,266.4 "/>
<polygon points="373.9,266.3 357.1,266.3 357.1,283.4 361,283.4 361,270.2 387.4,270.2 387.4,283.4 391.4,283.4 391.4,266.3 "/>
<path d="M531.4,186.5v2.2h2.2v-2.2H531.4z M527,186.5v2.2h2.2v-2.2H527z M522.7,186.5v2.2h2.2v-2.2H522.7z M496.6,186.5v2.2h23.9
	v-2.2H496.6z M472.7,182.2v2.2h2.2v-2.2H472.7z M472.7,177.8v2.2h2.2v-2.2H472.7z M531.4,175.7v2.2c0,2.4-1.9,4.3-4.4,4.3h-35.5
	l2.6-2.7l-1.6-1.5l-4.4,4.6c-0.4,0.4-0.4,1.1,0,1.5l4.4,4.5l1.6-1.5l-2.6-2.7H527c3.6,0,6.5-2.9,6.5-6.5v-2.2L531.4,175.7z
	 M472.7,173.5v2.2h2.2v-2.2H472.7z M505.3,151.8c2.4,0,4.4,1.9,4.4,4.3c0,2.4-1.9,4.3-4.4,4.3s-4.4-1.9-4.4-4.3
	C500.9,153.8,502.9,151.8,505.3,151.8z M505.3,149.7c-3.6,0-6.5,2.9-6.5,6.5c0,3.6,2.9,6.5,6.5,6.5s6.5-2.9,6.5-6.5
	C511.8,152.6,508.9,149.7,505.3,149.7z M472.7,147.5v23.8h2.2v-23.8H472.7z M535.8,141v23.8h2.2V141H535.8z M478.1,138.9
	c-0.3,0-0.5,0.1-0.7,0.3l-4.6,4.3l1.5,1.6l2.7-2.6v35.4c0,3.6,2.9,6.5,6.5,6.5h2.2v-2.2h-2.2c-2.4,0-4.4-1.9-4.4-4.3v-35.4l2.7,2.6
	l1.5-1.6l-4.6-4.3C478.6,138.9,478.3,138.8,478.1,138.9z M503.1,138.9h4.4v5.9c0,0.5,0.3,0.9,0.8,1c0.8,0.2,1.6,0.5,2.3,1
	c0.4,0.2,1,0.2,1.3-0.2l4.1-4.1l3.1,3.1l-4.1,4.1c-0.3,0.3-0.4,0.9-0.2,1.3c0.4,0.7,0.7,1.5,1,2.3c0.1,0.5,0.6,0.8,1,0.8h5.8v4.3
	h-5.9c-0.5,0-0.9,0.3-1,0.8c-0.2,0.8-0.6,1.6-1,2.4c-0.2,0.4-0.2,1,0.2,1.3l4.2,4.2L516,170l-4.2-4.2c-0.3-0.3-0.9-0.4-1.3-0.2
	c-0.7,0.4-1.5,0.7-2.3,0.9c-0.5,0.1-0.8,0.6-0.8,1v5.9h-4.4v-5.9c0-0.5-0.3-0.9-0.8-1c-0.8-0.2-1.6-0.5-2.3-1
	c-0.4-0.2-1-0.2-1.3,0.2l-4.2,4.2l-3.1-3.1l4.2-4.2c0.3-0.3,0.4-0.9,0.2-1.3c-0.4-0.7-0.7-1.5-1-2.3c-0.1-0.5-0.6-0.8-1-0.8h-6V154
	h6c0.5,0,0.9-0.3,1-0.8c0.2-0.8,0.5-1.6,0.9-2.3c0.2-0.4,0.2-0.9-0.2-1.3l-4.2-4.2l3.1-3.1l4.2,4.1c0.3,0.3,0.9,0.4,1.3,0.2
	c0.8-0.4,1.6-0.8,2.4-1c0.5-0.1,0.8-0.6,0.8-1V138.9z M535.8,136.7v2.2h2.2v-2.2H535.8z M502,136.7c-0.6,0-1.1,0.5-1.1,1.1v6.2
	c-0.4,0.2-0.9,0.3-1.3,0.5l-4.4-4.4c-0.4-0.4-1.1-0.4-1.5,0l-4.6,4.6c-0.4,0.4-0.4,1.1,0,1.5l4.4,4.4c-0.2,0.4-0.3,0.8-0.5,1.2h-6.3
	c-0.6,0-1.1,0.5-1.1,1.1v6.5c0,0.6,0.5,1.1,1.1,1.1h6.3c0.1,0.4,0.3,0.8,0.5,1.2l-4.5,4.5c-0.4,0.4-0.4,1.1,0,1.5l4.6,4.6
	c0.4,0.4,1.1,0.4,1.5,0l4.5-4.5c0.4,0.2,0.8,0.3,1.2,0.5v6.2c0,0.6,0.5,1.1,1.1,1.1h6.5c0.6,0,1.1-0.5,1.1-1.1v-6.2
	c0.4-0.1,0.8-0.3,1.1-0.5l4.5,4.4c0.4,0.4,1.1,0.4,1.5,0l4.6-4.6c0.4-0.4,0.4-1.1,0-1.5l-4.4-4.4c0.2-0.4,0.4-0.8,0.5-1.3h6.2
	c0.6,0,1.1-0.5,1.1-1.1v-6.5c0-0.6-0.5-1.1-1.1-1.1h-6.2c-0.1-0.4-0.3-0.8-0.5-1.2l4.4-4.4c0.4-0.4,0.4-1.1,0-1.5l-4.6-4.6
	c-0.4-0.4-1.1-0.4-1.5,0l-4.4,4.4c-0.4-0.2-0.8-0.4-1.2-0.5v-6.2c0-0.6-0.5-1.1-1.1-1.1L502,136.7z M535.8,132.4v2.2h2.2v-2.2H535.8
	z M535.8,128v2.2h2.2V128H535.8z M524.9,128v2.2h2.2c2.4,0,4.4,1.9,4.4,4.3v35.4l-2.7-2.6l-1.5,1.6l4.6,4.3c0.4,0.4,1.1,0.4,1.5,0
	l4.6-4.3l-1.5-1.6l-2.7,2.6v-35.4c0-3.6-2.9-6.5-6.5-6.5H524.9z M518,123.8l-1.6,1.5l2.6,2.7h-35.5c-3.6,0-6.5,2.9-6.5,6.5v2.2h2.2
	v-2.2c0-2.4,1.9-4.3,4.4-4.3h35.5l-2.6,2.7l1.6,1.5l4.4-4.5c0.4-0.4,0.4-1.1,0-1.5L518,123.8z M490.1,123.7v2.2H514v-2.2H490.1z
	 M485.7,123.7v2.2h2.2v-2.2H485.7z M481.4,123.7v2.2h2.2v-2.2H481.4z M477,123.7v2.2h2.2v-2.2H477z"/>
<text transform="matrix(0 0.9954 -1 0 544.6187 140.0637)" fill="#010101" font-family="'MyriadPro-Regular'" font-size="11.1395">Code</text>
<text transform="matrix(0 -0.9954 1 0 469.0074 166.758)" fill="#010101" font-family="'MyriadPro-Regular'" font-size="11.1395">Code</text>
<text transform="matrix(1.0046 0 0 1 493.3492 200.2502)" fill="#010101" font-family="'MyriadPro-Regular'" font-size="11.0884">Docs</text>
<path d="M238.8,223c0,2.5-2,4.5-4.5,4.5l0,0c-2.5,0-4.5-2-4.5-4.5v-0.6c0-2.5,2-4.5,4.5-4.5l0,0c2.5,0,4.5,2,4.5,4.5V223z"/>
</svg>
