<?xml version="1.0" encoding="utf-8"?>
<!-- Generator: Adobe Illustrator 17.1.0, SVG Export Plug-In . SVG Version: 6.00 Build 0)  -->
<!DOCTYPE svg PUBLIC "-//W3C//DTD SVG 1.1//EN" "http://www.w3.org/Graphics/SVG/1.1/DTD/svg11.dtd">
<svg version="1.1" id="Layer_1" xmlns="http://www.w3.org/2000/svg" xmlns:xlink="http://www.w3.org/1999/xlink" x="0px" y="0px"
	 viewBox="0 0 600 350" enable-background="new 0 0 600 350" xml:space="preserve">
<rect x="0" y="24.1" fill="none" width="600" height="45.9"/>
<text transform="matrix(1 0 0 1 92.491 44.9815)" font-family="'MyriadPro-Regular'" font-size="25">Looking at job ads to extrapolate trends</text>
<path d="M218.9,161h-8.8c-9.1,0-16.5,8.4-16.5,18.7c0,12.1,8.4,30,20.9,30c12.4,0,20.9-18.3,20.9-30.4
	C235.3,169.4,228,161,218.9,161z"/>
<path d="M156.7,282.9c-3.3,1.1-6.6,2.6-8.8,5.1c-2.6,2.6-4.4,5.5-5.1,8.8l-1.8,13.2l-1.8,13.5c-0.4,1.5,0.4,2.9,1.5,4
	c1.1,1.1,2.6,1.8,4,1.8h57.8c1.5,0,2.9-0.7,4-1.8c1.1-1.1,1.5-2.6,1.5-4l-3.7-26.3c-1.1-3.3-2.9-6.6-5.1-8.8c-2.6-2.6-5.5-4-8.8-5.1
	h-33.7L156.7,282.9z"/>
<path d="M146,297.5l-3.3,26.3c0,0.7,0.4,1.1,0.4,1.1c0.4,0.4,0.7,0.7,1.5,0.7h58.2c0.7,0,1.1-0.4,1.5-0.7c0.4-0.4,0.4-0.7,0.4-1.1
	l-3.7-26.3c-0.7-2.6-2.2-5.1-4-6.9c-1.8-1.8-4.4-3.3-6.9-4h-32.6c-2.6,0.7-4.8,2.2-6.9,4C148.2,292.8,146.8,294.9,146,297.5
	L146,297.5z M202.4,333h-58.2c-2.6,0-5.1-1.1-6.6-2.9c-1.8-1.8-2.6-4.4-2.2-6.9l3.7-27.1c1.1-4,3.3-7.7,6.2-10.6
	c2.9-2.9,6.6-4.8,10.6-5.9h35.9c4,1.1,7.7,3.3,10.6,5.9c2.9,2.9,5.1,6.6,6.2,10.6v0.4l3.7,26.3c0.4,2.6-0.4,5.1-2.2,6.9
	C207.5,331.9,205,333,202.4,333L202.4,333z"/>
<path d="M177.9,230.5h-8.8c-6.9,0-12.8,6.6-12.8,15c0,11.3,7.7,26.3,17.2,26.3c9.5,0,17.2-15,17.2-26.3
	C190.3,237.1,184.8,230.5,177.9,230.5z"/>
<path d="M169.1,234.2c-5.1,0-9.1,5.1-9.1,11.3c0,9.9,6.6,23.1,13.5,23.1c6.9,0,13.5-13.2,13.5-22.7c0-6.2-4-11.3-9.1-11.3l-8.8,0
	V234.2z M173.5,275.9c-12.4,0-20.9-18.3-20.9-30c0-10.2,7.3-18.7,16.5-18.7h8.8c9.1,0,16.5,8.4,16.5,18.3
	C194.3,257.6,185.9,275.9,173.5,275.9z"/>
<path d="M218.1,225.4v-5.1c0-2.2-1.5-3.7-3.7-3.7c-2.2,0-3.7,1.5-3.7,3.7v5.1H218.1z"/>
<path d="M252.5,256.9l-3.7-26.3v-0.4c-1.1-4-3.3-7.7-6.2-10.6s-6.6-4.8-10.6-5.9l-2.2-0.7l-12.1,12.8v23.1c0,2.2-1.5,3.7-3.7,3.7
	s-3.7-1.5-3.7-3.7v-23.1L198.4,213l-2.2,0.7c-4,1.1-7.7,3.3-10.6,5.9l-1.5,1.5c9.5,3.3,16.5,13.2,16.5,24.5c0,6.9-1.8,14.6-5.5,21.6
	h47.6c2.6,0,5.1-1.1,6.6-2.9C252.2,262,252.9,259.5,252.5,256.9L252.5,256.9z"/>
<path d="M132.1,294.2c1.5-5.1,4-9.9,8-13.9c3.7-3.7,8.4-6.6,13.5-7.7h0.4c-2.2-2.9-4-6.6-5.5-10.2l-39.5,34c-1.1,1.1-1.5,2.6-1.1,4
	c0.4,1.5,1.8,2.2,3.3,2.2h19L132.1,294.2z"/>
<path d="M279.6,262c-0.4-1.5-1.8-2.2-3.3-2.2h-16.5c-0.4,3.3-1.8,6.6-4,9.1c-2.9,3.3-7.7,5.5-12.1,5.5h-45.4
	c3.3,1.5,6.2,3.3,8.4,5.9c4,3.7,6.6,8.8,8,13.9l0.4,1.1l1.1,7.7h19c0.7,0,1.8-0.4,2.6-0.7l41.3-35.9
	C280,264.9,280.3,263.5,279.6,262L279.6,262z"/>
<path d="M378.5,171.4h-70.3V84.2h45.4v22.6c0,0.8,0.6,1.4,1.4,1.4l23.5,0L378.5,171.4z M356.4,86.1l20,19.3l-20,0V86.1z
	 M381.1,106.2c-0.1-0.1-0.1-0.3-0.3-0.4l-24.9-24c-0.1-0.1-0.3-0.3-0.6-0.3H355h-48.2c-0.8,0-1.4,0.6-1.4,1.4v89.9
	c0,0.8,0.6,1.4,1.4,1.4h73.1c0.8,0,1.4-0.6,1.4-1.4V167l0-60.1C381.3,106.7,381.3,106.3,381.1,106.2L381.1,106.2z"/>
<path d="M96.9,300.8l-2.6-8.3l5,0L96.9,300.8z M96.1,262.6l1.3,0c1.3,0,2.3,1.2,2.2,2.7l0,3l-5.7-0.1l0-3
	C94,263.7,95,262.6,96.1,262.6L96.1,262.6z M93.9,270.1l5.7,0.1l0.1,20.3l-5.7-0.1L93.9,270.1z M101.7,291.5l0-22.3l0-4
	c0-2.6-1.9-4.6-4.2-4.6l-1.3,0c-2.4,0-4.3,2.1-4.2,4.6l0,26.2l0,0.3l3.9,12.7c0.1,0.4,0.5,0.7,1,0.7c0.4,0,0.8-0.3,1-0.7l3.7-12.7
	L101.7,291.5L101.7,291.5z"/>
<path d="M368.6,127.4H357v-10.5h11.6L368.6,127.4z M369.5,115h-13.5c-0.6,0-0.9,0.4-0.9,0.9v12.3c0,0.6,0.4,0.9,0.9,0.9h13.5
	c0.6,0,0.9-0.4,0.9-0.9l0-12.3C370.5,115.5,370.1,115,369.5,115L369.5,115z"/>
<path d="M360.3,75.1c0.2,0.2,0.4,0.4,0.7,0.4h0.1c0.2,0,0.5-0.1,0.7-0.3l5.6-5c0.4-0.4,0.4-0.9,0.1-1.3c-0.4-0.4-0.9-0.4-1.3-0.1
	l-4.8,4.3L360,71c-0.3-0.5-0.8-0.6-1.3-0.3c-0.5,0.3-0.6,0.8-0.3,1.3L360.3,75.1z"/>
<path d="M368.7,144h-11.6v-10.5h11.6L368.7,144z M369.6,131.6h-13.5c-0.6,0-0.9,0.4-0.9,0.9v12.3c0,0.6,0.4,0.9,0.9,0.9h13.5
	c0.6,0,0.9-0.4,0.9-0.9l0-12.3C370.6,132.1,370.2,131.6,369.6,131.6L369.6,131.6z"/>
<path d="M360.4,91.7c0.2,0.2,0.4,0.4,0.7,0.4h0.1c0.2,0,0.5-0.1,0.7-0.3l5.6-5c0.4-0.4,0.4-0.9,0.1-1.3c-0.4-0.4-0.9-0.4-1.3-0.1
	l-4.8,4.3l-1.3-2.1c-0.3-0.5-0.8-0.6-1.3-0.3s-0.6,0.8-0.3,1.3L360.4,91.7z"/>
<path d="M368.7,161.1h-11.6v-10.5h11.6L368.7,161.1z M369.6,148.8h-13.5c-0.6,0-0.9,0.4-0.9,0.9v12.3c0,0.6,0.4,0.9,0.9,0.9h13.5
	c0.6,0,0.9-0.4,0.9-0.9l0-12.3C370.6,149.3,370.2,148.8,369.6,148.8L369.6,148.8z"/>
<path d="M360.4,108.9c0.2,0.2,0.4,0.4,0.7,0.4h0.1c0.2,0,0.5-0.1,0.7-0.3l5.6-5c0.4-0.4,0.4-0.9,0.1-1.3c-0.4-0.4-0.9-0.4-1.3-0.1
	l-4.8,4.3l-1.3-2.1c-0.3-0.5-0.8-0.6-1.3-0.3c-0.5,0.3-0.6,0.8-0.3,1.3L360.4,108.9z"/>
<path d="M317.1,112.9c0-3.9,3.2-7,7-7h9.8c3.9,0,7,3.2,7,7v3h-23.9L317.1,112.9z M329.1,89.9c3.2,0,5.9,2.7,5.9,5.9
	c0,3.2-2.7,5.9-5.9,5.9c-3.2,0-5.9-2.7-5.9-5.9C323.2,92.5,325.9,89.9,329.1,89.9z M315.7,118.7h26.7c0.8,0,1.4-0.6,1.4-1.4v-4.4
	c0-5.5-4.5-9.8-9.8-9.8h-0.1c2.4-1.5,4.1-4.2,4.1-7.3c0-4.8-3.9-8.7-8.7-8.7s-8.7,3.9-8.7,8.7c0,3.1,1.7,5.8,4.1,7.3h-0.4
	c-5.5,0-9.8,4.5-9.8,9.8v4.4C314.2,118,315,118.7,315.7,118.7L315.7,118.7z"/>
<path d="M316.1,124.3c-0.8,0-1.4,0.6-1.4,1.4c0,0.8,0.6,1.4,1.4,1.4l27.3,0c0.8,0,1.4-0.6,1.4-1.4c0-0.8-0.6-1.4-1.4-1.4
	L316.1,124.3z"/>
<path d="M343.3,133.9h-27.3c-0.8,0-1.4,0.6-1.4,1.4c0,0.8,0.6,1.4,1.4,1.4l27.3,0c0.8,0,1.4-0.6,1.4-1.4
	C344.7,134.6,344.2,133.9,343.3,133.9L343.3,133.9z"/>
<path d="M344.4,143.5h-29c-0.5,0-0.8,0.6-0.8,1.4c0,0.8,0.3,1.4,0.8,1.4l29,0c0.5,0,0.8-0.6,0.8-1.4
	C345.2,144.1,344.9,143.5,344.4,143.5L344.4,143.5z"/>
<path d="M344.4,153.1h-29c-0.5,0-0.8,0.6-0.8,1.4c0,0.8,0.3,1.4,0.8,1.4l29,0c0.5,0,0.8-0.6,0.8-1.4
	C345.2,153.8,344.9,153.1,344.4,153.1L344.4,153.1z"/>
<path d="M344.4,162.8h-29c-0.5,0-0.8,0.6-0.8,1.4c0,0.8,0.3,1.4,0.8,1.4l29,0c0.5,0,0.8-0.6,0.8-1.4
	C345.2,163.4,344.9,162.8,344.4,162.8z"/>
<line fill="none" stroke="#282726" stroke-miterlimit="10" x1="271.4" y1="242.8" x2="314.3" y2="187.5"/>
</svg>
