<?xml version="1.0" encoding="utf-8"?>
<!-- Generator: Adobe Illustrator 17.1.0, SVG Export Plug-In . SVG Version: 6.00 Build 0)  -->
<!DOCTYPE svg PUBLIC "-//W3C//DTD SVG 1.1//EN" "http://www.w3.org/Graphics/SVG/1.1/DTD/svg11.dtd">
<svg version="1.1" id="Layer_1" xmlns="http://www.w3.org/2000/svg" xmlns:xlink="http://www.w3.org/1999/xlink" x="0px" y="0px"
	 viewBox="0 0 600 350" enable-background="new 0 0 600 350" xml:space="preserve">
<rect x="0" y="44.1" fill="none" width="600" height="45.9"/>
<text transform="matrix(1 0 0 1 30.2174 64.9814)" font-family="'MyriadPro-Regular'" font-size="25">More collaboration in authoring specialized content</text>
<path fill="#FFFFFF" stroke="#010101" stroke-width="1.2655" stroke-miterlimit="10" d="M317.2,153.3c0,2-1.6,3.6-3.5,3.6
	l-102.9,0.5c-1.9,0-3.4-1.6-3.5-3.6L206.9,82c0-2,1.5-3.5,3.4-3.5L313.3,78c1.9,0,3.5,1.6,3.5,3.5L317.2,153.3z"/>
<ellipse transform="matrix(1 -4.963813e-03 4.963813e-03 1 -0.9868 1.3151)" fill="#161616" cx="264.4" cy="199.5" rx="31.7" ry="13"/>
<path fill="none" stroke="#111111" stroke-width="0.4218" stroke-miterlimit="10" d="M245.6,150.3"/>
<path fill="#010101" stroke="#FFFFFF" stroke-width="0.1406" stroke-miterlimit="10" d="M257.9,156.7l21.3-0.1
	c0,0-10.2,16.5-7.7,30.8c1.7,9.6,16,15.8,16,15.8l-43.5,0.2c0,0,12-9.6,12.4-20.5c0.4-10.9-12.6-26.1-12.6-26.1l13-0.1"/>
<g>
	<path fill="none" stroke="#4D54A4" stroke-width="0.4218" stroke-miterlimit="10" d="M303.8,139.8c-0.9,0.6-1.3,1.6-1,2.5"/>
	<path fill="none" stroke="#4D54A4" stroke-width="0.4218" stroke-miterlimit="10" d="M305.3,139.8c0.2,0,0.5,0.1,0.6,0.2
		c0.8,0.6,1.2,1.5,1.1,2.3"/>
	<path fill="none" stroke="#4D54A4" stroke-width="0.4218" stroke-miterlimit="10" d="M302.5,142.1c1.4,0,2.8,0,4.2,0.1"/>
	<path fill="none" stroke="#4D54A4" stroke-width="0.4218" stroke-miterlimit="10" d="M303,138.4c-1.6,0-3.2,0.2-4.8,0.5"/>
	<path fill="none" stroke="#4D54A4" stroke-width="0.4218" stroke-miterlimit="10" d="M294.2,140.6c-0.9,0.1-1.7,0.1-2.6,0.1
		c-0.2-1.2-0.5-2.4-0.7-3.6c1.9,0,3.7-0.1,5.6-0.1c0.3,1,0.5,2.1,0.7,3.2c-0.7,0.1-2.5,0.1-2.9,0.5c-0.1,0.2,0,0.8-0.2,1
		c-0.2,0.3-0.4,0.6-0.8,0.9"/>
	<path fill="none" stroke="#4D54A4" stroke-width="0.4218" stroke-miterlimit="10" d="M295.6,140.5c-0.4,0.9,0.4,2,1.5,2.2"/>
	<path fill="none" stroke="#4D54A4" stroke-width="0.4218" stroke-miterlimit="10" d="M293.3,136.8c-0.2-3.6-0.4-7.1-0.5-10.7
		c-0.2-4.6-0.5-9.2-1.9-13.7"/>
	<path fill="none" stroke="#4D54A4" stroke-width="0.4218" stroke-miterlimit="10" d="M303.2,110.3c0,0.2,0,0.5-0.2,0.7
		c-0.1,0.2-0.4,0.2-0.6,0.3c-0.9,0.3-2,0.4-3,0.3c0.3,0.2,0.2,0.7-0.1,0.9c-0.3,0.2-0.8,0.3-1.3,0.3c-1,0.1-2.1,0.2-3.1,0.1
		c-1-0.1-2.1-0.4-2.7-1c-1.3,0.5-2.8,0.8-4.2,0.8c-1.5-0.1-2.9-0.5-3.8-1.5c-1,0.5-2.1,0.8-3.3,0.8c-0.8-0.9-0.5-2.3,0.4-3.1
		c0.9-0.9,2.3-1.3,3.7-1.6c-0.9-0.2-1-1.2-0.5-1.7c0.5-0.6,1.5-0.8,2.3-1c1.6-0.3,3.4-0.6,4.9-0.1c-0.3-0.4,0.4-0.8,0.9-0.9
		c1-0.3,2-0.4,3-0.3c0.3,0,0.6,0,0.8,0.2c0.2,0.1,0.3,0.3,0.4,0.4c1.2,1.2,4,0.2,5.2,1.3c0.4,0.4,0.5,1.1,0.1,1.5
		c-0.4,0.4-1.1,0.7-1.8,0.5C301.8,107.9,303,109,303.2,110.3z"/>
	<path fill="none" stroke="#4D54A4" stroke-width="0.4218" stroke-miterlimit="10" d="M288,108.6c0.1-1,0.4-1.9,1-2.8
		c0.4,0.2,0.7,0.5,0.9,0.9c0.3,0.5,0.4,1.1,0.9,1.5"/>
	<path fill="none" stroke="#4D54A4" stroke-width="0.4218" stroke-miterlimit="10" d="M288.3,107.2"/>
	<path fill="none" stroke="#4D54A4" stroke-width="0.4218" stroke-miterlimit="10" d="M288.2,107.5c0.6,0.1,1.2,0,1.7-0.1"/>
	<path fill="none" stroke="#4D54A4" stroke-miterlimit="10" d="M291.6,108.3V106c0,0,0.6-0.3,0.9-0.3c0.3,0,0.6,0.2,0.7,0.4
		c0.1,0.3-0.2,0.7-0.5,0.8c-0.4,0.1-0.8,0.1-1.2,0.1"/>
	<path fill="none" stroke="#4D54A4" stroke-width="0.4218" stroke-miterlimit="10" d="M294.3,105.6c0,0.8,0.1,1.7,0.1,2.5"/>
	<path fill="none" stroke="#4D54A4" stroke-width="0.4218" stroke-miterlimit="10" d="M282.7,107.7c-4.5,0-9,0.2-13.4,0.5"/>
	<path fill="none" stroke="#4D54A4" stroke-width="0.4218" stroke-miterlimit="10" d="M268.2,109c-0.8,0.9-1.6,1.9-2.7,2.5
		c-0.4,0.3-0.9,0.5-1.5,0.5c-1.2,0.1-2.3-0.7-2.7-1.6c-0.8-1.4-0.5-3.1,0.6-4.3c1.1-1.2,3-2,4.9-2.1c0.3,0,0.5,0,0.8,0.1
		c0.4,0.2,0.7,0.5,0.8,0.9c0.2,0.8,0.1,1.6-0.4,2.3"/>
	<path fill="none" stroke="#4D54A4" stroke-width="0.4218" stroke-miterlimit="10" d="M266.5,105.8c0.1,0.6,0.9,1,1.1,1.5
		c0.7-0.2,1.6-0.5,2.3-0.8"/>
	<path fill="none" stroke="#4D54A4" stroke-width="0.4218" stroke-miterlimit="10" d="M294.2,138c-0.3,0.5-0.6,1.1-0.8,1.7"/>
	<path fill="none" stroke="#4D54A4" stroke-width="0.4218" stroke-miterlimit="10" d="M294.6,138.2c0.5,0,1.1,0.2,1.4,0.6
		c-0.5,0.5-1,0.9-1.6,1.2"/>
	<path fill="none" stroke="#4D54A4" stroke-width="0.4218" stroke-miterlimit="10" d="M293.2,138.2c-0.4,0-0.9,0.2-1.2,0.6
		c0.4,0.5,0.8,0.9,1.3,1.2"/>
	<path fill="none" stroke="#4D54A4" stroke-width="0.4218" stroke-miterlimit="10" d="M262.2,108.4c1.5,0,2.9,0,4.3,0.1"/>
	<path fill="none" stroke="#4D54A4" stroke-width="0.4218" stroke-miterlimit="10" d="M262.8,107.7c0.1-0.1,0.3,0.1,0.3,0.3
		c-0.1,0-0.2,0-0.2,0s-0.1-0.1,0-0.1"/>
	<path fill="none" stroke="#4D54A4" stroke-width="0.4125" stroke-miterlimit="10" d="M264.1,107.6c0,0,0.2,0,0.3,0
		c0,0.2,0,0.3,0,0.4c-0.3,0-0.8-0.2-0.7-0.4C263.9,107.5,264,107.5,264.1,107.6"/>
	<path fill="none" stroke="#4D54A4" stroke-width="0.4218" stroke-miterlimit="10" d="M265.7,107.7c-0.1,0-0.2,0-0.3,0
		c-0.1,0.2,0.2,0.4,0.4,0.3c0.1-0.2,0-0.4-0.1-0.5"/>
	<path fill="none" stroke="#4D54A4" stroke-width="0.4218" stroke-miterlimit="10" d="M290.9,112.9c-0.3,0.6-0.6,1.3-1,1.9"/>
	<path fill="none" stroke="#4D54A4" stroke-width="0.4218" stroke-miterlimit="10" d="M291.1,112.8c0.8,0.7,1.7,1.4,2.5,2"/>
	<path fill="none" stroke="#4D54A4" stroke-width="0.4218" stroke-miterlimit="10" d="M267.2,111.3c4.2,8.3,10,16.1,17.1,23
		c1.4,1.4,3,2.8,5.1,3.2"/>
	<path fill="none" stroke="#4D54A4" stroke-width="0.4218" stroke-miterlimit="10" d="M289,135.8c0.2,0.6,0.4,1.3,0.4,1.9
		c-0.9,0-1.9,0.2-2.8,0.2"/>
	<path fill="none" stroke="#4D54A4" stroke-width="0.4218" stroke-miterlimit="10" d="M295.7,136.1c2.7-3.1,5.4-6.3,8.1-9.4"/>
	<path fill="none" stroke="#4D54A4" stroke-width="0.4218" stroke-miterlimit="10" d="M304.4,125.3c0,0.3,0.2,0.5,0.5,0.7
		c0.4,0.2,0.9,0.2,1.4,0.2c0.5,0,1.1,0,1.6,0c0.5,0,1.1,0,1.4-0.3c0.5-0.4,0.1-1.1-0.5-1.4s-1.4-0.3-2.1-0.3c-0.4,0-0.8,0-1.3,0
		c-0.2,0-0.4,0-0.5,0.1c-1.6,1.3-0.8,4.4-0.8,6.1c1.5,0.4,3.2,0.3,4.8,0.3c0.2,0,0.6-0.1,0.4-0.3"/>
	<path fill="none" stroke="#4D54A4" stroke-width="0.4218" stroke-miterlimit="10" d="M309.4,125.9c-0.1,1.6,0,3.2,0.2,4.7"/>
	<path fill="none" stroke="#4D54A4" stroke-width="0.4218" stroke-miterlimit="10" d="M303.1,126.7c-2.4-2.2-5-4.2-7.8-6
		c-1-0.7-2.1-1.3-2.7-2.3"/>
	<path fill="none" stroke="#4D54A4" stroke-width="0.4218" stroke-miterlimit="10" d="M298.5,120.9c0.6,0,1.2,0,1.9-0.1
		c0.1,0.3,0.1,0.6,0.1,0.9c0,0,0,0,0,0s0,0,0,0c-0.2,0.3-0.5,0.5-0.7,0.8c-0.4-0.2-0.7-0.4-1-0.6c0,0-0.1,0-0.1-0.1c0,0,0-0.1,0-0.1
		C298.6,121.4,298.6,121.2,298.5,120.9z"/>
	<g>
		<path fill="none" stroke="#4D54A4" stroke-width="0.2812" stroke-miterlimit="10" d="M276.9,135.5c0.3,0,0.5,0,0.8,0
			c0.3,0,0.5,0,0.8-0.1"/>
		<path fill="none" stroke="#4D54A4" stroke-width="0.2812" stroke-miterlimit="10" d="M277.7,135.6c0.1,0.3,0.1,0.6,0.2,0.9
			c-0.1,0.1-0.3,0.2-0.4,0.2c-0.2,0-0.3-0.1-0.3-0.2"/>
		<path fill="none" stroke="#4D54A4" stroke-width="0.2812" stroke-miterlimit="10" d="M279.3,135.3c-0.1-0.1-0.3,0-0.4,0.1
			c-0.1,0.1-0.1,0.2,0,0.4c0.2,0,0.4,0.1,0.6,0.2s0.2,0.3,0.1,0.5c-0.1,0.1-0.3,0.1-0.5,0.1c-0.2,0-0.4,0-0.4-0.1"/>
		<path fill="none" stroke="#4D54A4" stroke-width="0.2812" stroke-miterlimit="10" d="M280.7,135.4c-0.1,0-0.1,0-0.2,0
			c-0.2,0-0.3,0-0.5,0c0,0.3-0.1,0.6,0,0.8c0.1,0.3,0.4,0.5,0.8,0.4c0.1-0.3,0.2-0.6,0.1-0.9C280.9,135.6,280.9,135.4,280.7,135.4z"
			/>
		<line fill="none" stroke="#4D54A4" stroke-miterlimit="10" x1="281.6" y1="135.3" x2="281.6" y2="136.3"/>
		<path fill="none" stroke="#4D54A4" stroke-width="0.2812" stroke-miterlimit="10" d="M281.8,135.3c0.4,0.4,0.7,0.8,1,1.3"/>
		<path fill="none" stroke="#4D54A4" stroke-width="0.2812" stroke-miterlimit="10" d="M282.7,136.5c0-0.5,0-0.9,0.1-1.4"/>
	</g>
	<line fill="none" stroke="#4D54A4" stroke-miterlimit="10" x1="305.6" y1="127.3" x2="305.6" y2="129.3"/>
	<path fill="none" stroke="#4D54A4" stroke-width="0.2812" stroke-miterlimit="10" d="M306.5,127.6c0.4-0.2,0.9,0,1.1,0.3
		c0.2,0.3,0.1,0.7,0,1.1c-0.3,0-0.6,0-0.9,0.1"/>
	<path fill="none" stroke="#4D54A4" stroke-width="0.2812" stroke-miterlimit="10" d="M305.7,127.4c0,0.7,0.1,1.3,0.1,2"/>
	<path fill="none" stroke="#4D54A4" stroke-width="0.2812" stroke-miterlimit="10" d="M301.3,119.6c0,0.4,0,0.7,0,1.1"/>
	<path fill="none" stroke="#4D54A4" stroke-width="0.2812" stroke-miterlimit="10" d="M302.2,120.4c0,0,0,0.1,0,0.1
		c0,0,0.1,0.1,0.1,0.1c0.1,0.1,0.3,0.1,0.4,0.1c0.1,0,0.2-0.1,0.2-0.2c0-0.1,0-0.2,0-0.2c0-0.1,0-0.3,0-0.4s-0.2-0.2-0.4-0.2
		c0,0-0.1,0-0.1,0c0,0,0,0,0,0c-0.1,0.1-0.2,0.3-0.2,0.4C302.2,120.2,302.2,120.3,302.2,120.4z"/>
	<path fill="none" stroke="#4D54A4" stroke-width="0.2812" stroke-miterlimit="10" d="M303.4,119.6c0,0.4,0,0.8,0,1.2"/>
	<path fill="none" stroke="#4D54A4" stroke-width="0.2812" stroke-miterlimit="10" d="M303.6,120.2c0.2-0.2,0.3-0.4,0.5-0.5"/>
	<path fill="none" stroke="#4D54A4" stroke-width="0.2812" stroke-miterlimit="10" d="M304.1,120.7c-0.1,0-0.1-0.1-0.2-0.2
		c-0.1-0.1-0.2-0.1-0.3-0.2c0,0-0.1-0.1-0.1-0.1"/>
	<path fill="none" stroke="#4D54A4" stroke-width="0.2812" stroke-miterlimit="10" d="M304.9,119.7c-0.2,0-0.4,0-0.6,0"/>
	<line fill="none" stroke="#4D54A4" stroke-width="0.6891" stroke-miterlimit="10" x1="304.7" y1="119.7" x2="304.7" y2="119.7"/>
	<line fill="none" stroke="#4D54A4" stroke-width="0.6891" stroke-miterlimit="10" x1="304.7" y1="121" x2="304.7" y2="121"/>
	<path fill="none" stroke="#4D54A4" stroke-width="0.2812" stroke-miterlimit="10" d="M304.3,119.6c0,0.4,0,0.7-0.1,1.1"/>
	<path fill="none" stroke="#4D54A4" stroke-width="0.2812" stroke-miterlimit="10" d="M305.2,119.6c0,0.3,0,0.5,0,0.8
		c0,0.1,0,0.2,0,0.4"/>
	<path fill="none" stroke="#4D54A4" stroke-width="0.2812" stroke-miterlimit="10" d="M305.3,119.6c0.1,0.1,0.1,0.2,0.2,0.2
		c0.1,0.2,0.3,0.4,0.4,0.5c0.1,0.1,0.1,0.2,0.2,0.3"/>
	<path fill="none" stroke="#4D54A4" stroke-width="0.2812" stroke-miterlimit="10" d="M306,120.6c0-0.4,0-0.7,0-1.1"/>
	<path fill="none" stroke="#4D54A4" stroke-width="0.2812" stroke-miterlimit="10" d="M302.2,119.6c-0.3,0-0.6,0-1,0
		c-0.1,0-0.2,0-0.2,0c-0.2,0-0.3,0.1-0.5,0"/>
	<path fill="none" stroke="#4D54A4" stroke-width="0.4218" stroke-miterlimit="10" d="M304.6,140.5c0.1,0,0.2,0,0.2,0
		c0.7-0.1,0.6-0.9,0.6-1.3c-0.1-0.7-0.5-1.3-1.5-1.3c-0.3,0-0.5,0.9-0.5,1.1c0,0.5,0.2,0.9,0.7,1.3
		C304.3,140.4,304.5,140.5,304.6,140.5z"/>
</g>
<path fill="#FFFFFF" stroke="#010101" stroke-width="0.4218" stroke-miterlimit="10" d="M228.8,206.3c0.6,0.4,1.6,0.7,2.3,0.6
	l83-9.4c0.7-0.1,0.8-0.5,0.3-0.9l-12.5-9.3c-0.6-0.4-1.6-0.7-2.3-0.6l-83,9.4c-0.7,0.1-0.8,0.5-0.3,0.9L228.8,206.3z"/>
<rect x="216.1" y="104.3" fill="#010101" width="38" height="25"/>
<text transform="matrix(0.9406 0 0 1 220.5535 123.8504)" fill="#F9F9FA" font-family="'MyriadPro-Regular'" font-size="19.4429">&lt;/&gt;</text>
<line fill="none" stroke="#454545" stroke-miterlimit="10" x1="217.1" y1="93.8" x2="309.1" y2="93.8"/>
<line fill="none" stroke="#454545" stroke-miterlimit="10" x1="214.1" y1="147.8" x2="306.1" y2="147.8"/>
<line fill="none" stroke="#454545" stroke-miterlimit="10" x1="214.1" y1="150.8" x2="306.1" y2="150.8"/>
<line fill="none" stroke="#454545" stroke-miterlimit="10" x1="214.1" y1="141.8" x2="256.1" y2="141.8"/>
<line fill="none" stroke="#454545" stroke-miterlimit="10" x1="214.1" y1="137.8" x2="256.1" y2="137.8"/>
<line fill="none" stroke="#454545" stroke-miterlimit="10" x1="217.1" y1="96.8" x2="309.1" y2="96.8"/>
<path fill="none" stroke="#010101" stroke-width="0.703" stroke-miterlimit="10" d="M216.8,198.8c-4.5,0.1-8.1-5.2-6.4-9.3
	c2.3-5.3,10.4-6.2,12.3-11.7c6.6-1.8,13.2-3.6,19.8-5.3"/>
<line fill="none" stroke="#010101" stroke-width="0.1406" stroke-miterlimit="10" x1="222" y1="199.5" x2="304.1" y2="190.9"/>
<line fill="none" stroke="#010101" stroke-width="0.1406" stroke-miterlimit="10" x1="224.8" y1="203.1" x2="306.9" y2="194.5"/>
<path d="M379.5,172.5c0,7.5-6,13.5-13.5,13.5c-7.5,0-13.5-6-13.5-13.5c0-7.4,6-13.5,13.5-13.5C373.4,159,379.5,165,379.5,172.5"/>
<polygon points="250.8,280.5 264.2,280.5 264.2,234.1 307.6,234.1 307.6,280.5 321,280.5 321,220.3 250.8,220.3 "/>
<polygon points="385.8,210.4 379.7,210.4 379.7,249.3 344,249.3 344,259.7 390.1,259.7 390.1,210.4 "/>
<path d="M373.3,245.3h1.5c1.4,0,2.6-3,2.6-6.8l0-47h-17.1l-4.7,3.3l-11.5,6.9l-19.6,0l1.9,0l-5.3,0.4l-1.5,6.2l2.5-0.3l-2.5,0.3
	c0.8,1.6,2.5,2.7,4.4,2.7h20.8l2.7-0.1l8.2-4.9v25.5l-23.6,0v0.1c-3.1,0.5-5.4,3.3-5.4,6.7v36c0,3.8,2.9,6.8,6.4,6.8
	c3.5,0,6.4-3,6.4-6.8l0-29L373.3,245.3z"/>
<path d="M294.2,219.7h21.6c1.9,0,3.4-1.2,3.4-2.8c0-1.5-1.5-2.8-3.4-2.8h-21.6c-1.9,0-3.4,1.2-3.4,2.8
	C290.8,218.5,292.3,219.7,294.2,219.7z"/>
<path d="M325.5,207.3c0,2.5-2,4.5-4.5,4.5l0,0c-2.5,0-4.5-2-4.5-4.5v-0.6c0-2.5,2-4.5,4.5-4.5l0,0c2.5,0,4.5,2,4.5,4.5V207.3z"/>
<text transform="matrix(1 0 0 1 343.9559 296.0916)" font-family="'MyriadPro-Regular'" font-size="12.4043">Developer</text>
<text transform="matrix(1 0 0 1 217.9568 89.9251)" font-family="'MyriadPro-Regular'" font-size="10.3369">Documentation</text>
<path d="M174.5,193.2c0.9,7.4,7.8,12.6,15.4,11.7c7.6-0.9,13-7.7,12.1-15.1c-0.9-7.4-7.8-12.6-15.4-11.7
	C179,179,173.6,185.8,174.5,193.2"/>
<polygon points="171.9,228.7 179.2,228.1 182.6,266.8 225.3,263.1 226.2,273.4 171.1,278.2 166.8,229.2 "/>
<path d="M189,263.9l-1.6,0.1c-1.5,0.1-3-2.8-3.3-6.5l-4.3-46.8l17.5-1.6l5.1,2.9l12.4,5.8l20-1.9L233,216l5.5-0.1l2.1,6l-2.6-0.1
	l2.6,0.1c-0.6,1.7-2.3,3-4.3,3.1l-21.2,2l-2.8,0.1l-8.8-4.2l2.4,25.4l24.1-2.2l0,0.1c3.2,0.2,5.9,2.8,6.2,6.2l3.3,35.8
	c0.3,3.8-2.3,7.1-5.9,7.4c-3.6,0.3-6.8-2.4-7.2-6.2l-2.7-28.8L189,263.9z"/>
<text transform="matrix(1 0 0 1 172.8309 311.0807)" font-family="'MyriadPro-Regular'" font-size="12.4043">Tech writer</text>
<polygon points="191.2,278.6 174.4,278.6 174.4,295.6 178.4,295.6 178.4,282.5 204.8,282.5 204.8,295.6 208.7,295.6 208.7,278.6 "/>
<polygon points="377.2,263.4 360.5,263.4 360.5,280.4 364.4,280.4 364.4,267.3 390.8,267.3 390.8,280.4 394.7,280.4 394.7,263.4 "/>
<polygon points="376.9,263.3 360.1,263.3 360.1,280.4 364,280.4 364,267.2 390.4,267.2 390.4,280.4 394.4,280.4 394.4,263.3 "/>
<path d="M534.4,168.5v2.2h2.2v-2.2H534.4z M530,168.5v2.2h2.2v-2.2H530z M525.7,168.5v2.2h2.2v-2.2H525.7z M499.6,168.5v2.2h23.9
	v-2.2H499.6z M475.7,164.2v2.2h2.2v-2.2H475.7z M475.7,159.8v2.2h2.2v-2.2H475.7z M534.4,157.7v2.2c0,2.4-1.9,4.3-4.4,4.3h-35.5
	l2.6-2.7l-1.6-1.5l-4.4,4.6c-0.4,0.4-0.4,1.1,0,1.5l4.4,4.5l1.6-1.5l-2.6-2.7H530c3.6,0,6.5-2.9,6.5-6.5v-2.2L534.4,157.7z
	 M475.7,155.5v2.2h2.2v-2.2H475.7z M508.3,133.8c2.4,0,4.4,1.9,4.4,4.3c0,2.4-1.9,4.3-4.4,4.3s-4.4-1.9-4.4-4.3
	C503.9,135.8,505.9,133.8,508.3,133.8z M508.3,131.7c-3.6,0-6.5,2.9-6.5,6.5c0,3.6,2.9,6.5,6.5,6.5s6.5-2.9,6.5-6.5
	C514.8,134.6,511.9,131.7,508.3,131.7z M475.7,129.5v23.8h2.2v-23.8H475.7z M538.8,123v23.8h2.2V123H538.8z M481.1,120.9
	c-0.3,0-0.5,0.1-0.7,0.3l-4.6,4.3l1.5,1.6l2.7-2.6v35.4c0,3.6,2.9,6.5,6.5,6.5h2.2v-2.2h-2.2c-2.4,0-4.4-1.9-4.4-4.3v-35.4l2.7,2.6
	l1.5-1.6l-4.6-4.3C481.6,120.9,481.3,120.8,481.1,120.9z M506.1,120.9h4.4v5.9c0,0.5,0.3,0.9,0.8,1c0.8,0.2,1.6,0.5,2.3,1
	c0.4,0.2,1,0.2,1.3-0.2l4.1-4.1l3.1,3.1l-4.1,4.1c-0.3,0.3-0.4,0.9-0.2,1.3c0.4,0.7,0.7,1.5,1,2.3c0.1,0.5,0.6,0.8,1,0.8h5.8v4.3
	h-5.9c-0.5,0-0.9,0.3-1,0.8c-0.2,0.8-0.6,1.6-1,2.4c-0.2,0.4-0.2,1,0.2,1.3l4.2,4.2L519,152l-4.2-4.2c-0.3-0.3-0.9-0.4-1.3-0.2
	c-0.7,0.4-1.5,0.7-2.3,0.9c-0.5,0.1-0.8,0.6-0.8,1v5.9h-4.4v-5.9c0-0.5-0.3-0.9-0.8-1c-0.8-0.2-1.6-0.5-2.3-1
	c-0.4-0.2-1-0.2-1.3,0.2l-4.2,4.2l-3.1-3.1l4.2-4.2c0.3-0.3,0.4-0.9,0.2-1.3c-0.4-0.7-0.7-1.5-1-2.3c-0.1-0.5-0.6-0.8-1-0.8h-6V136
	h6c0.5,0,0.9-0.3,1-0.8c0.2-0.8,0.5-1.6,0.9-2.3c0.2-0.4,0.2-0.9-0.2-1.3l-4.2-4.2l3.1-3.1l4.2,4.1c0.3,0.3,0.9,0.4,1.3,0.2
	c0.8-0.4,1.6-0.8,2.4-1c0.5-0.1,0.8-0.6,0.8-1V120.9z M538.8,118.7v2.2h2.2v-2.2H538.8z M505,118.7c-0.6,0-1.1,0.5-1.1,1.1v6.2
	c-0.4,0.2-0.9,0.3-1.3,0.5l-4.4-4.4c-0.4-0.4-1.1-0.4-1.5,0l-4.6,4.6c-0.4,0.4-0.4,1.1,0,1.5l4.4,4.4c-0.2,0.4-0.3,0.8-0.5,1.2h-6.3
	c-0.6,0-1.1,0.5-1.1,1.1v6.5c0,0.6,0.5,1.1,1.1,1.1h6.3c0.1,0.4,0.3,0.8,0.5,1.2l-4.5,4.5c-0.4,0.4-0.4,1.1,0,1.5l4.6,4.6
	c0.4,0.4,1.1,0.4,1.5,0l4.5-4.5c0.4,0.2,0.8,0.3,1.2,0.5v6.2c0,0.6,0.5,1.1,1.1,1.1h6.5c0.6,0,1.1-0.5,1.1-1.1v-6.2
	c0.4-0.1,0.8-0.3,1.1-0.5l4.5,4.4c0.4,0.4,1.1,0.4,1.5,0l4.6-4.6c0.4-0.4,0.4-1.1,0-1.5l-4.4-4.4c0.2-0.4,0.4-0.8,0.5-1.3h6.2
	c0.6,0,1.1-0.5,1.1-1.1v-6.5c0-0.6-0.5-1.1-1.1-1.1h-6.2c-0.1-0.4-0.3-0.8-0.5-1.2l4.4-4.4c0.4-0.4,0.4-1.1,0-1.5l-4.6-4.6
	c-0.4-0.4-1.1-0.4-1.5,0l-4.4,4.4c-0.4-0.2-0.8-0.4-1.2-0.5v-6.2c0-0.6-0.5-1.1-1.1-1.1L505,118.7z M538.8,114.4v2.2h2.2v-2.2H538.8
	z M538.8,110v2.2h2.2V110H538.8z M527.9,110v2.2h2.2c2.4,0,4.4,1.9,4.4,4.3v35.4l-2.7-2.6l-1.5,1.6l4.6,4.3c0.4,0.4,1.1,0.4,1.5,0
	l4.6-4.3l-1.5-1.6l-2.7,2.6v-35.4c0-3.6-2.9-6.5-6.5-6.5H527.9z M521,105.8l-1.6,1.5l2.6,2.7h-35.5c-3.6,0-6.5,2.9-6.5,6.5v2.2h2.2
	v-2.2c0-2.4,1.9-4.3,4.4-4.3h35.5l-2.6,2.7l1.6,1.5l4.4-4.5c0.4-0.4,0.4-1.1,0-1.5L521,105.8z M493.1,105.7v2.2H517v-2.2H493.1z
	 M488.7,105.7v2.2h2.2v-2.2H488.7z M484.4,105.7v2.2h2.2v-2.2H484.4z M480,105.7v2.2h2.2v-2.2H480z"/>
<text transform="matrix(0 0.9954 -1 0 547.6187 122.0637)" fill="#010101" font-family="'MyriadPro-Regular'" font-size="11.1395">Code</text>
<text transform="matrix(0 -0.9954 1 0 472.0074 128.758)" fill="#010101" font-family="'MyriadPro-Regular'" font-size="11.1395">Code</text>
<text transform="matrix(1.0046 0 0 1 496.3492 182.2502)" fill="#010101" font-family="'MyriadPro-Regular'" font-size="11.0884">Docs</text>
<path d="M241.8,220c0,2.5-2,4.5-4.5,4.5l0,0c-2.5,0-4.5-2-4.5-4.5v-0.6c0-2.5,2-4.5,4.5-4.5l0,0c2.5,0,4.5,2,4.5,4.5V220z"/>
<path fill="none" stroke="#000000" stroke-width="0.6928" stroke-miterlimit="10" d="M70.9,269.9c0,4.1-3.2,7.4-7.1,7.4
	s-7.1-3.3-7.1-7.4c0-4.1,3.2-7.4,7.1-7.4S70.9,265.8,70.9,269.9"/>
<path fill="none" stroke="#000000" stroke-width="0.6928" stroke-miterlimit="10" d="M94.3,269.9c0,4.1-3.2,7.4-7.1,7.4
	c-3.9,0-7.1-3.3-7.1-7.4c0-4.1,3.2-7.4,7.1-7.4C91.1,262.4,94.3,265.8,94.3,269.9"/>
<path fill="none" stroke="#000000" stroke-width="0.6928" stroke-miterlimit="10" d="M87,258.1h-0.2c-0.2,0-0.3,0.1-0.6,0.1
	c-0.4-0.1-0.8-0.6-0.8-1c0-0.6,0.5-1.1,1-1.1s1,0.5,1,1.1C87.6,257.5,87.3,257.9,87,258.1L87,258.1z M86.8,260.3
	c-0.3,0-0.5-0.2-0.5-0.5s0.2-0.5,0.5-0.5s0.5,0.2,0.5,0.5C87.2,260.1,87,260.3,86.8,260.3z M84.5,256h-0.1c-1,0-1.8-0.9-1.8-1.9
	c0-1,0.8-1.9,1.8-1.9c1,0,1.8,0.9,1.8,1.9c0,0.2-0.1,0.4-0.1,0.6C85.3,254.9,84.8,255.4,84.5,256L84.5,256z M81.8,252.5H68.5
	c-0.6-0.9-1.5-1.6-2.6-1.6c-0.8,0-1.5,0.3-1.9,0.8c-2.3-2.2-1.7-7.7,2.1-7.8c-1.4-3.5,2.8-6.5,6.5-6.5c2.1,0,4.1,0.9,4.8,3.3
	c0.8-0.7,1.8-1.1,2.8-1.1c2.3,0,4.4,1.9,4,4.5c3.2,0.1,4.2,5.4,2,7.5c-0.5-0.4-1.2-0.6-1.9-0.6C83.3,251,82.3,251.6,81.8,252.5
	L81.8,252.5z M65.9,255.9h-0.1c-0.3-0.6-0.9-1.1-1.5-1.2c-0.1-0.2-0.1-0.4-0.1-0.6c0-1,0.8-1.9,1.8-1.9c1,0,1.8,0.9,1.8,1.9
	C67.7,255.1,66.8,255.9,65.9,255.9L65.9,255.9z M64,258c-0.2-0.1-0.3-0.1-0.6-0.1h-0.2c-0.3-0.2-0.6-0.5-0.6-0.9
	c0-0.6,0.5-1.1,1-1.1s1,0.5,1,1.1C64.8,257.4,64.4,257.9,64,258L64,258z M63.4,260.2c-0.3,0-0.5-0.2-0.5-0.5s0.2-0.5,0.5-0.5
	s0.5,0.2,0.5,0.5S63.7,260.2,63.4,260.2z M87.3,254.8c0.1-0.2,0.1-0.4,0.1-0.7s-0.1-0.5-0.1-0.7c1.2-1.1,2-2.7,2-4.8
	c0-2.8-1.2-5.1-3.2-6.1c-0.1-1-0.6-2-1.2-2.8c-1.1-1.4-2.9-2.2-4.7-2.2c-0.7,0-1.3,0.1-1.9,0.4c-1.2-1.7-3.2-2.6-5.6-2.6
	c-3.1,0-6.3,1.6-7.8,4c-0.6,0.9-1,2-1,3c-1.9,0.9-3.2,3.1-3.2,5.8c0,2.2,0.9,4.2,2.3,5.3c-0.1,0.2-0.1,0.4-0.1,0.6
	c0,0.2,0,0.5,0.1,0.7c-0.9,0.4-1.5,1.2-1.5,2.2c0,0.6,0.3,1.2,0.7,1.7c-0.2,0.3-0.3,0.6-0.3,1c0,1,0.8,1.8,1.7,1.8
	c1,0,1.7-0.8,1.7-1.8c0-0.3-0.1-0.5-0.1-0.7c0.6-0.4,0.9-1,1-1.7c1.5-0.1,2.6-1.2,2.9-2.7h12.5c0.2,1.5,1.4,2.7,2.9,2.7
	c0.1,0.7,0.4,1.4,1,1.7c-0.1,0.2-0.1,0.5-0.1,0.7c0,1,0.8,1.8,1.7,1.8c1,0,1.7-0.8,1.7-1.8c0-0.4-0.1-0.7-0.3-1
	c0.4-0.4,0.7-1,0.7-1.7C88.8,256.1,88.2,255.2,87.3,254.8L87.3,254.8z"/>
<path fill="none" stroke="#000000" stroke-width="0.6928" stroke-miterlimit="10" d="M63.7,278.8c-5.1,0-10.5,2.3-11.2,7.9v11.7
	h22.4v-3.1v-7.4C74.9,281.4,69.3,278.8,63.7,278.8L63.7,278.8z"/>
<path fill="none" stroke="#000000" stroke-width="0.6928" stroke-miterlimit="10" d="M87.1,278.8c-5.5,0-11.3,2.6-11.3,9.1v7v3.5
	h0.2l22.4,0v-10.3v-0.2C98.4,281.4,92.8,278.8,87.1,278.8L87.1,278.8z"/>
<path fill="none" stroke="#000000" stroke-width="0.6928" stroke-miterlimit="10" d="M77.2,244.4c0,1.2-0.3,1.5-0.8,1.9
	c-0.3,0.4-0.7,0.7-0.7,1.4v0.1h-1.5c0-0.8-0.4-1.2-0.7-1.7c-0.4-0.4-0.8-0.9-0.8-1.9c0-0.9,0.4-1.4,0.8-1.7c0.5-0.4,1-0.6,1.5-0.6
	C75.6,242.1,77.2,242.6,77.2,244.4L77.2,244.4z M77.4,248.6c0-0.3-0.1-0.5-0.3-0.6v-0.3c0-0.1,0.1-0.2,0.3-0.5
	c0.4-0.5,1.1-1.2,1.1-2.9c0-2.5-2.1-3.6-3.5-3.7c-1.4,0-3.5,1.2-3.5,3.7c0,1.6,0.6,2.3,1,2.8c0.3,0.4,0.4,0.5,0.4,0.8v0.1
	c-0.2,0.1-0.3,0.4-0.3,0.6s0.1,0.4,0.3,0.6c-0.2,0.1-0.3,0.4-0.3,0.6c0,0.4,0.3,0.6,0.6,0.6h0.4c-0.1,0.1-0.2,0.3-0.2,0.5
	c0,0.4,0.3,0.6,0.6,0.6h1.9c0.3,0,0.6-0.3,0.6-0.6c0-0.2-0.1-0.4-0.2-0.5h0.4c0.3,0,0.6-0.3,0.6-0.6c0-0.2-0.1-0.4-0.3-0.6
	C77.2,249.1,77.4,248.9,77.4,248.6L77.4,248.6z"/>
</svg>
