<?xml version="1.0" encoding="utf-8"?>
<!-- Generator: Adobe Illustrator 17.1.0, SVG Export Plug-In . SVG Version: 6.00 Build 0)  -->
<!DOCTYPE svg PUBLIC "-//W3C//DTD SVG 1.1//EN" "http://www.w3.org/Graphics/SVG/1.1/DTD/svg11.dtd">
<svg version="1.1" id="Layer_1" xmlns="http://www.w3.org/2000/svg" xmlns:xlink="http://www.w3.org/1999/xlink" x="0px" y="0px"
	 viewBox="0 0 600 350" enable-background="new 0 0 600 350" xml:space="preserve">
<rect x="0" y="24" fill="none" width="600" height="45.9"/>
<text transform="matrix(1 0 0 1 53.2665 44.9595)" font-family="'MyriadPro-Regular'" font-size="25">Complexity drives the value of  tech knowledge</text>
<path fill="#010101" d="M243.2,255.2c0-1.7-1.2-2.8-2.9-2.8s-2.9,1.1-2.9,2.8v5.6c0,1.7,1.2,2.8,2.9,2.8s2.9-1.1,2.9-2.8V255.2z
	 M243.2,269.3c0-1.7-1.2-2.8-2.9-2.8s-2.9,1.1-2.9,2.8v5.6c0,1.7,1.2,2.8,2.9,2.8s2.9-1.1,2.9-2.8V269.3z M240.3,280.5
	c-1.7,0-2.9,1.1-2.9,2.8v5.6c0,1.7,1.2,2.8,2.9,2.8s2.9-1.1,2.9-2.8v-5.6C243.2,281.7,242.1,280.5,240.3,280.5z M214.3,280.5h-98.5
	v5.6h98.5V280.5z M220.1,277.7V289c0,1.7-1.2,2.8-2.9,2.8H112.9c-1.7,0-2.9-1.1-2.9-2.8v-11.3c0-1.7,1.2-2.8,2.9-2.8h104.3
	C218.9,274.9,220.1,276,220.1,277.7z M115.8,263.6h98.5V258h-98.5V263.6z M112.9,252.4h104.3c1.7,0,2.9,1.1,2.9,2.8v11.3
	c0,1.7-1.2,2.8-2.9,2.8H112.9c-1.7,0-2.9-1.1-2.9-2.8v-11.3C110,253.5,111.1,252.4,112.9,252.4z M112.9,241.1c1.7,0,2.9-1.1,2.9-2.8
	v-8.4c0-1.7-1.2-2.8-2.9-2.8c-1.7,0-2.9,1.1-2.9,2.8v8.4C110,240,111.1,241.1,112.9,241.1z M124.5,238.3c0,1.7,1.2,2.8,2.9,2.8
	c1.7,0,2.9-1.1,2.9-2.8v-8.4c0-1.7-1.2-2.8-2.9-2.8c-1.7,0-2.9,1.1-2.9,2.8V238.3z M127.4,215.8c1.7,0,2.9-1.1,2.9-2.8v-8.4
	c0-1.7-1.2-2.8-2.9-2.8c-1.7,0-2.9,1.1-2.9,2.8v8.4C124.5,214.7,125.6,215.8,127.4,215.8z M153.4,218.6h17.4c1.7,0,2.9-1.1,2.9-2.8
	s-1.2-2.8-2.9-2.8h-17.4c-1.7,0-2.9,1.1-2.9,2.8S151.7,218.6,153.4,218.6z M153.4,229.9h17.4c1.7,0,2.9-1.1,2.9-2.8
	s-1.2-2.8-2.9-2.8h-17.4c-1.7,0-2.9,1.1-2.9,2.8S151.7,229.9,153.4,229.9z M179.5,207.4h-34.8v28.1h34.8V207.4z M185.3,204.6v33.8
	c0,1.7-1.2,2.8-2.9,2.8h-40.6c-1.7,0-2.9-1.1-2.9-2.8v-33.8c0-1.7,1.2-2.8,2.9-2.8h40.6C184.1,201.7,185.3,202.9,185.3,204.6z
	 M144.7,182h34.8v-33.8h-34.8V182z M139,173.6V168h-2.9c-1.7,0-2.9-1.1-2.9-2.8c0-1.7,1.2-2.8,2.9-2.8h2.9v-5.6h-2.9
	c-1.7,0-2.9-1.1-2.9-2.8c0-1.7,1.2-2.8,2.9-2.8h2.9v-5.6c0-1.7,1.2-2.8,2.9-2.8h5.8v-2.8c0-1.7,1.2-2.8,2.9-2.8s2.9,1.1,2.9,2.8v2.8
	h5.8v-2.8c0-1.7,1.2-2.8,2.9-2.8c1.7,0,2.9,1.1,2.9,2.8v2.8h5.8v-2.8c0-1.7,1.2-2.8,2.9-2.8s2.9,1.1,2.9,2.8v2.8h5.8
	c1.7,0,2.9,1.1,2.9,2.8v5.6h2.9c1.7,0,2.9,1.1,2.9,2.8c0,1.7-1.2,2.8-2.9,2.8h-2.9v5.6h2.9c1.7,0,2.9,1.1,2.9,2.8
	c0,1.7-1.2,2.8-2.9,2.8h-2.9v5.6h2.9c1.7,0,2.9,1.1,2.9,2.8c0,1.7-1.2,2.8-2.9,2.8h-2.9v5.6c0,1.7-1.2,2.8-2.9,2.8h-5.8v2.8
	c0,1.7-1.2,2.8-2.9,2.8s-2.9-1.1-2.9-2.8v-2.8H165v2.8c0,1.7-1.2,2.8-2.9,2.8c-1.7,0-2.9-1.1-2.9-2.8v-2.8h-5.8v2.8
	c0,1.7-1.2,2.8-2.9,2.8s-2.9-1.1-2.9-2.8v-2.8h-5.8c-1.7,0-2.9-1.1-2.9-2.8v-5.6h-2.9c-1.7,0-2.9-1.1-2.9-2.8c0-1.7,1.2-2.8,2.9-2.8
	H139z M208.5,196.1h5.8v-53.5h-5.8V196.1z M214.3,201.7h-5.8v33.8h5.8V201.7z M205.6,241.1c-1.7,0-2.9-1.1-2.9-2.8v-98.5
	c0-1.7,1.2-2.8,2.9-2.8h11.6c1.7,0,2.9,1.1,2.9,2.8v98.5c0,1.7-1.2,2.8-2.9,2.8H205.6z M237.5,201.7h-5.8v33.8h5.8V201.7z
	 M231.7,196.1h5.8v-53.5h-5.8V196.1z M243.2,238.3c0,1.7-1.2,2.8-2.9,2.8h-11.6c-1.7,0-2.9-1.1-2.9-2.8v-98.5c0-1.7,1.2-2.8,2.9-2.8
	h11.6c1.7,0,2.9,1.1,2.9,2.8V238.3z M101.3,187.7h14.5v-22.5h-14.5V187.7z M95.5,190.5v-28.1c0-1.7,1.2-2.8,2.9-2.8h20.3
	c1.7,0,2.9,1.1,2.9,2.8v28.1c0,1.7-1.2,2.8-2.9,2.8H98.4C96.7,193.3,95.5,192.2,95.5,190.5z M101.3,210.2h8.7v-8.4h-8.7V210.2z
	 M95.5,213v-14.1c0-1.7,1.2-2.8,2.9-2.8h14.5c1.7,0,2.9,1.1,2.9,2.8V213c0,1.7-1.2,2.8-2.9,2.8H98.4C96.7,215.8,95.5,214.7,95.5,213
	z M101.3,151.1h8.7v-5.6h-8.7V151.1z M95.5,153.9v-11.3c0-1.7,1.2-2.8,2.9-2.8h14.5c1.7,0,2.9,1.1,2.9,2.8v11.3
	c0,1.7-1.2,2.8-2.9,2.8H98.4C96.7,156.7,95.5,155.6,95.5,153.9z M257.7,128.6V303c0,1.7-1.2,2.8-2.9,2.8H98.4
	c-1.7,0-2.9-1.1-2.9-2.8v-81.6c0-1.7,1.2-2.8,2.9-2.8s2.9,1.1,2.9,2.8v78.8h150.6V131.4H101.3v2.8c0,1.7-1.2,2.8-2.9,2.8
	s-2.9-1.1-2.9-2.8v-5.6c0-1.7,1.2-2.8,2.9-2.8h156.4C256.6,125.8,257.7,126.9,257.7,128.6L257.7,128.6z"/>
<ellipse fill="#010101" cx="194" cy="219.8" rx="4.3" ry="4.2"/>
<ellipse fill="#010101" cx="194" cy="236" rx="4.3" ry="4.2"/>
<ellipse fill="#010101" cx="194" cy="203.6" rx="4.3" ry="4.2"/>
<line fill="none" stroke="#010101" stroke-width="7.3755" stroke-linecap="round" stroke-miterlimit="10" x1="229.5" y1="254.5" x2="229.5" y2="293.2"/>
<ellipse fill="none" stroke="#010101" stroke-width="0.9219" stroke-linecap="round" stroke-miterlimit="10" cx="150" cy="161.3" rx="2.2" ry="2.1"/>
<ellipse fill="none" stroke="#010101" stroke-width="0.9219" stroke-linecap="round" stroke-miterlimit="10" cx="150" cy="176.7" rx="2.2" ry="2.1"/>
<ellipse fill="none" stroke="#010101" stroke-width="0.9219" stroke-linecap="round" stroke-miterlimit="10" cx="150" cy="153.6" rx="2.2" ry="2.1"/>
<ellipse fill="none" stroke="#010101" stroke-width="0.9219" stroke-linecap="round" stroke-miterlimit="10" cx="150" cy="168.9" rx="2.2" ry="2.1"/>
<ellipse fill="none" stroke="#010101" stroke-width="0.9219" stroke-linecap="round" stroke-miterlimit="10" cx="158" cy="161.3" rx="2.2" ry="2.1"/>
<ellipse fill="none" stroke="#010101" stroke-width="0.9219" stroke-linecap="round" stroke-miterlimit="10" cx="158" cy="176.7" rx="2.2" ry="2.1"/>
<ellipse fill="none" stroke="#010101" stroke-width="0.9219" stroke-linecap="round" stroke-miterlimit="10" cx="158" cy="153.6" rx="2.2" ry="2.1"/>
<ellipse fill="none" stroke="#010101" stroke-width="0.9219" stroke-linecap="round" stroke-miterlimit="10" cx="158" cy="168.9" rx="2.2" ry="2.1"/>
<ellipse fill="none" stroke="#010101" stroke-width="0.9219" stroke-linecap="round" stroke-miterlimit="10" cx="165.2" cy="161.3" rx="2.2" ry="2.1"/>
<ellipse fill="none" stroke="#010101" stroke-width="0.9219" stroke-linecap="round" stroke-miterlimit="10" cx="165.2" cy="176.7" rx="2.2" ry="2.1"/>
<ellipse fill="none" stroke="#010101" stroke-width="0.9219" stroke-linecap="round" stroke-miterlimit="10" cx="165.2" cy="153.6" rx="2.2" ry="2.1"/>
<ellipse fill="none" stroke="#010101" stroke-width="0.9219" stroke-linecap="round" stroke-miterlimit="10" cx="165.2" cy="168.9" rx="2.2" ry="2.1"/>
<ellipse fill="none" stroke="#010101" stroke-width="0.9219" stroke-linecap="round" stroke-miterlimit="10" cx="173.2" cy="161.3" rx="2.2" ry="2.1"/>
<ellipse fill="none" stroke="#010101" stroke-width="0.9219" stroke-linecap="round" stroke-miterlimit="10" cx="173.2" cy="176.7" rx="2.2" ry="2.1"/>
<ellipse fill="none" stroke="#010101" stroke-width="0.9219" stroke-linecap="round" stroke-miterlimit="10" cx="173.2" cy="153.6" rx="2.2" ry="2.1"/>
<ellipse fill="none" stroke="#010101" stroke-width="0.9219" stroke-linecap="round" stroke-miterlimit="10" cx="173.2" cy="168.9" rx="2.2" ry="2.1"/>
<rect x="115.1" y="280.5" fill="#010101" width="102.1" height="11.3"/>
<rect x="205.6" y="141.2" fill="#010101" width="11.6" height="55.6"/>
<path fill="#E5E3E1" stroke="#AFAFAF" stroke-width="0.6155" stroke-miterlimit="10" d="M283.9,289.5h191.8c0,0,4.7,10-19.9,10
	s-158.2,1-160.4,0c-2.2-1-10.7-2.4-13.9-11.2"/>
<path fill="#010101" d="M461.6,276.6c0,3-2.4,5.4-5.4,5.4H303.7c-3,0-5.6-2.4-5.6-5.4v-80.9c0-3,2.6-5.4,5.6-5.4h152.6
	c3,0,5.4,2.4,5.4,5.4L461.6,276.6L461.6,276.6z"/>
<rect x="317.5" y="167.7" fill="#F9F9FA" width="124.8" height="57.4"/>
<path fill="#010101" d="M436.4,150.4c0.2,0.2,0.5,0.3,0.8,0.3c0.4,0,0.7-0.2,0.8-0.3c0.5-0.5,0.5-1.3,0-1.6l-2.7-2.6
	c-0.5-0.5-1.3-0.5-1.7,0c-0.4,0.5-0.5,1.3,0,1.6L436.4,150.4z"/>
<path fill="#010101" d="M445.2,159.1c0.2,0.2,0.5,0.3,0.8,0.3c0.4,0,0.7-0.2,0.8-0.3c0.5-0.5,0.5-1.3,0-1.6l-2.7-2.6
	c-0.5-0.5-1.3-0.5-1.7,0c-0.5,0.5-0.5,1.3,0,1.6L445.2,159.1z"/>
<path fill="#010101" d="M434.6,159.4c0.4,0,0.7-0.2,0.8-0.3l2.7-2.6c0.5-0.5,0.5-1.3,0-1.6c-0.5-0.3-1.3-0.5-1.7,0l-2.7,2.4
	c-0.5,0.5-0.5,1.3,0,1.6C434.1,159.3,434.3,159.4,434.6,159.4L434.6,159.4z"/>
<path fill="#010101" d="M443.5,150.8c0.4,0,0.7-0.2,0.8-0.3l2.7-2.6c0.5-0.5,0.5-1.3,0-1.6c-0.5-0.3-1.3-0.5-1.7,0l-2.7,2.6
	c-0.5,0.5-0.5,1.3,0,1.6C442.8,150.8,443.1,150.8,443.5,150.8L443.5,150.8z"/>
<path fill="#010101" d="M278.6,305.3c-0.5-0.5-1.3-0.5-1.7,0c-0.4,0.5-0.5,1.3,0,1.6l2.7,2.6c0.2,0.2,0.5,0.3,0.8,0.3
	s0.7-0.2,0.8-0.3c0.5-0.5,0.5-1.3,0-1.6L278.6,305.3z"/>
<path fill="#010101" d="M269.6,332.9c-0.5-0.5-1.4-0.5-1.8,0c-0.5,0.5-0.5,1.4,0,1.8l2.9,2.9c0.2,0.2,0.5,0.4,0.9,0.4
	s0.7-0.2,0.9-0.4c0.5-0.5,0.5-1.4,0-1.8L269.6,332.9z"/>
<path fill="#010101" d="M261.1,332.9l-2.9,2.9c-0.5,0.5-0.5,1.4,0,1.8c0.4,0.4,0.7,0.4,0.9,0.4c0.2,0,0.7-0.2,0.9-0.4l2.9-2.9
	c0.5-0.5,0.5-1.4,0-1.8C262.6,332.4,261.7,332.4,261.1,332.9L261.1,332.9z"/>
<path fill="#010101" d="M288.4,305.3l-2.7,2.6c-0.5,0.5-0.5,1.3,0,1.6c0.2,0.2,0.5,0.3,0.8,0.3s0.7-0.2,0.8-0.3l2.7-2.6
	c0.5-0.5,0.5-1.3,0-1.6C289.5,305,288.8,305,288.4,305.3L288.4,305.3z"/>
<path fill="#010101" d="M472.3,235.3c0.2,0.2,0.5,0.3,0.8,0.3c0.4,0,0.7-0.2,0.8-0.3c0.5-0.5,0.5-1.3,0-1.6l-2.7-2.6
	c-0.5-0.5-1.3-0.5-1.7,0c-0.5,0.5-0.5,1.3,0,1.6L472.3,235.3z"/>
<path fill="#010101" d="M481,243.8c0.2,0.2,0.5,0.3,0.8,0.3c0.4,0,0.7-0.2,0.8-0.3c0.5-0.5,0.5-1.3,0-1.6l-2.7-2.6
	c-0.5-0.5-1.3-0.5-1.7,0c-0.5,0.5-0.5,1.3,0,1.6L481,243.8z"/>
<path fill="#010101" d="M470.5,244.3c0.4,0,0.7-0.2,0.8-0.3l2.7-2.6c0.5-0.5,0.5-1.3,0-1.6c-0.5-0.5-1.3-0.5-1.7,0l-2.7,2.6
	c-0.5,0.5-0.5,1.3,0,1.6C470,244.1,470.2,244.3,470.5,244.3L470.5,244.3z"/>
<path fill="#010101" d="M479.4,235.6c0.4,0,0.7-0.2,0.8-0.3l2.7-2.6c0.5-0.5,0.5-1.3,0-1.6c-0.5-0.3-1.3-0.5-1.7,0l-2.7,2.6
	c-0.5,0.5-0.5,1.3,0,1.6C478.7,235.6,479,235.6,479.4,235.6L479.4,235.6z"/>
<path fill="#010101" d="M278.8,192.5c0.7,0,1.2-0.5,1.2-1.2v-19.4c0-0.6-0.5-1.2-1.2-1.2c-0.7,0-1.2,0.5-1.2,1.2v19.2
	C277.6,191.8,278.1,192.5,278.8,192.5L278.8,192.5z"/>
<path fill="#010101" d="M278.8,208.5c0.7,0,1.2-0.5,1.2-1.2v-6.9c0-0.6-0.5-1.2-1.2-1.2c-0.7,0-1.2,0.5-1.2,1.2v6.9
	C277.6,207.8,278.1,208.5,278.8,208.5z"/>
<path fill="#010101" d="M475.5,165.9c0.7,0,1.2-0.5,1.2-1.2v-19.4c0-0.6-0.5-1.2-1.2-1.2s-1.2,0.5-1.2,1.2v19.2
	C474.3,165.4,474.8,165.9,475.5,165.9L475.5,165.9z"/>
<path fill="#010101" d="M475.5,181.9c0.7,0,1.2-0.5,1.2-1.2v-6.9c0-0.6-0.5-1.2-1.2-1.2s-1.2,0.5-1.2,1.2v6.9
	C474.3,181.4,474.8,181.9,475.5,181.9z"/>
<path fill="#010101" d="M375.2,146.7c1.9,0,3.4,1.5,3.4,3.3s-1.5,3.3-3.4,3.3c-1.9,0-3.4-1.5-3.4-3.3
	C371.9,148.2,373.2,146.7,375.2,146.7z M375.2,155.7c3.2,0,5.9-2.6,5.9-5.7s-2.7-5.7-5.9-5.7s-5.9,2.6-5.9,5.7
	C369.3,153.1,371.9,155.7,375.2,155.7z"/>
<path fill="#010101" d="M405.6,315.8c-1.9,0-3.4-1.5-3.4-3.3c0-1.8,1.5-3.3,3.4-3.3s3.4,1.5,3.4,3.3
	C408.9,314.3,407.4,315.8,405.6,315.8z M405.6,306.8c-3.2,0-5.9,2.6-5.9,5.7c0,3.1,2.7,5.7,5.9,5.7c3.2,0,5.9-2.6,5.9-5.7
	C411.4,309.5,408.9,306.8,405.6,306.8z"/>
<path fill="#010101" d="M275.4,258.8c0-1.8,1.5-3.3,3.4-3.3c1.9,0,3.4,1.5,3.4,3.3s-1.5,3.3-3.4,3.3
	C276.9,262,275.4,260.6,275.4,258.8z M284.7,258.8c0-3.1-2.7-5.7-5.9-5.7c-3.2,0-5.9,2.6-5.9,5.7c0,3.1,2.7,5.7,5.9,5.7
	C282,264.5,284.7,261.9,284.7,258.8z"/>
<path fill="#010101" d="M301.4,147c0,0.6,0.5,1.2,1.2,1.2h26c0.7,0,1.2-0.5,1.2-1.2c0-0.6-0.5-1.2-1.2-1.2h-25.8
	C302.1,145.9,301.4,146.4,301.4,147L301.4,147z"/>
<path fill="#010101" d="M285.8,148.2h8.4c0.7,0,1.2-0.5,1.2-1.2s-0.5-1.2-1.2-1.2h-8.4c-0.7,0-1.2,0.5-1.2,1.2
	C284.5,147.7,285.2,148.2,285.8,148.2z"/>
<path fill="#010101" d="M285.8,139.5H304c0.7,0,1.2-0.5,1.2-1.2c0-0.6-0.5-1.2-1.2-1.2h-18.1c-0.7-0.2-1.3,0.5-1.3,1.2
	C284.5,139.1,285.2,139.5,285.8,139.5z"/>
<path fill="#010101" d="M311.7,139.5h5.9c0.7,0,1.2-0.5,1.2-1.2c0-0.6-0.5-1.2-1.2-1.2h-5.9c-0.7,0-1.2,0.5-1.2,1.2
	C310.5,139.1,311,139.5,311.7,139.5z"/>
<path fill="#010101" d="M469,310.9c0-0.6-0.5-1.2-1.2-1.2h-26c-0.7,0-1.2,0.5-1.2,1.2s0.5,1.2,1.2,1.2h26
	C468.5,312,469,311.6,469,310.9z"/>
<path fill="#010101" d="M475,310.9c0,0.6,0.5,1.2,1.2,1.2h8.4c0.7,0,1.2-0.5,1.2-1.2s-0.5-1.2-1.2-1.2h-8.4
	C475.5,309.8,475,310.2,475,310.9z"/>
<path fill="#010101" d="M480.6,337.8h-19.4c-0.7,0-1.3,0.5-1.3,1.3s0.5,1.3,1.3,1.3h19.4c0.7,0,1.3-0.5,1.3-1.3
	S481.3,337.8,480.6,337.8z"/>
<path fill="#010101" d="M452.8,337.8h-6.3c-0.7,0-1.3,0.5-1.3,1.3s0.5,1.3,1.3,1.3h6.3c0.7,0,1.3-0.5,1.3-1.3
	S453.5,337.8,452.8,337.8z"/>
<path fill="#010101" d="M285.5,292.2l-1.7-2.6h191.9l-1.7,2.6c-2.9,4.6-8.1,7.3-13.4,7.3H298.9C293.6,299.6,288.4,296.7,285.5,292.2
	L285.5,292.2z M476.4,293.5l1.9-3.1c0.4-0.6,0.4-1.5,0-2.1s-1.2-1.2-1.9-1.2h-193c-0.8,0-1.5,0.5-1.9,1.2c-0.4,0.7-0.4,1.5,0,2.1
	l1.9,3.1c3.2,5.2,9.2,8.5,15.6,8.5h161.8C467,301.9,473,298.7,476.4,293.5L476.4,293.5z"/>
<path fill="#F7F8F8" d="M398.9,241.7c-0.5-0.3-1.3-0.2-1.7,0.3c-0.4,0.5-0.2,1.3,0.4,1.6l16.1,9.8l-16.1,9.8
	c-0.5,0.3-0.8,1.2-0.4,1.6c0.2,0.3,0.7,0.5,1,0.5c0.2,0,0.5,0,0.7-0.2l17.8-10.7c0.4-0.2,0.5-0.6,0.5-1c0-0.3-0.2-0.8-0.5-1
	L398.9,241.7z"/>
<path fill="#F7F8F8" d="M362.5,242c-0.4-0.5-1.2-0.8-1.7-0.3L343,252.4c-0.4,0.2-0.5,0.6-0.5,1c0,0.3,0.2,0.8,0.5,1l17.8,10.7
	c0.2,0.2,0.5,0.2,0.7,0.2c0.4,0,0.8-0.2,1-0.5c0.4-0.5,0.2-1.3-0.4-1.6l-16.3-9.8l16.1-9.8C362.6,243.3,362.8,242.7,362.5,242
	L362.5,242z"/>
<path fill="#F7F8F8" d="M386.6,235.8c-0.7-0.2-1.3,0-1.5,0.6l-12.7,32.4c-0.2,0.6,0,1.3,0.7,1.5h0.5c0.5,0,1-0.3,1.2-0.8l12.7-32.4
	C387.6,236.6,387.3,236,386.6,235.8L386.6,235.8z"/>
<path fill="#010101" d="M319.9,168.9h119.9v55.1H319.9V168.9z M452.5,190.7c3.5,0,6.5,2.8,6.5,6.3v82.8H300.7V197
	c0-3.4,2.9-6.3,6.5-6.3h10.1v34.2c0,0.6,0.5,1.2,1.2,1.2h122.4c0.7,0,1.2-0.5,1.2-1.2v-34.2H452.5L452.5,190.7z M317.4,167.6v20.7
	h-10.2c-4.8,0-8.9,3.9-8.9,8.6v83.9c0,0.6,0.5,1.2,1.2,1.2h160.7c0.7,0,1.2-0.5,1.2-1.2V197c0-4.7-4-8.6-8.9-8.6h-10.2v-20.9
	c0-0.6-0.5-1.2-1.2-1.2H318.6C317.9,166.4,317.4,166.9,317.4,167.6L317.4,167.6z"/>
<path fill="#010101" d="M326.9,175.7h6.9v4.4h-6.9V175.7z M325.7,182.6h9.4c0.7,0,1.2-0.5,1.2-1.2v-6.7c0-0.6-0.5-1.2-1.2-1.2h-9.4
	c-0.7,0-1.2,0.5-1.2,1.2v6.7C324.6,181.9,325.1,182.6,325.7,182.6z"/>
<path fill="#010101" d="M343.4,175.7h6.9v4.4h-6.9V175.7z M342.2,182.6h9.4c0.7,0,1.2-0.5,1.2-1.2v-6.7c0-0.6-0.5-1.2-1.2-1.2h-9.4
	c-0.7,0-1.2,0.5-1.2,1.2v6.7C341,181.9,341.5,182.6,342.2,182.6z"/>
<path fill="#010101" d="M359.9,175.7h6.9v4.4h-6.9V175.7z M358.6,182.6h9.4c0.7,0,1.2-0.5,1.2-1.2v-6.7c0-0.6-0.5-1.2-1.2-1.2h-9.4
	c-0.7,0-1.2,0.5-1.2,1.2v6.7C357.4,181.9,358,182.6,358.6,182.6z"/>
<path fill="#010101" d="M376.4,175.7h6.9v4.4h-6.9V175.7z M375.2,182.6h9.2c0.7,0,1.2-0.5,1.2-1.2v-6.7c0-0.6-0.5-1.2-1.2-1.2h-9.4
	c-0.7,0-1.2,0.5-1.2,1.2v6.7C373.9,181.9,374.4,182.6,375.2,182.6L375.2,182.6z"/>
<path fill="#010101" d="M392.8,175.7h6.9v4.4h-6.9V175.7z M391.6,182.6h9.4c0.7,0,1.2-0.5,1.2-1.2v-6.7c0-0.6-0.5-1.2-1.2-1.2h-9.4
	c-0.7,0-1.2,0.5-1.2,1.2v6.7C390.3,181.9,391,182.6,391.6,182.6z"/>
<path fill="#010101" d="M409.3,175.7h6.9v4.4h-6.9V175.7z M408.1,182.6h9.4c0.7,0,1.2-0.5,1.2-1.2v-6.7c0-0.6-0.5-1.2-1.2-1.2h-9.4
	c-0.7,0-1.2,0.5-1.2,1.2v6.7C406.9,181.9,407.4,182.6,408.1,182.6z"/>
<path fill="#010101" d="M425.9,175.7h6.9v4.4h-6.9V175.7z M424.5,182.6h9.4c0.7,0,1.2-0.5,1.2-1.2v-6.7c0-0.6-0.5-1.2-1.2-1.2h-9.4
	c-0.7,0-1.2,0.5-1.2,1.2v6.7C423.3,181.9,423.9,182.6,424.5,182.6z"/>
<path fill="#010101" d="M326.9,188.1h6.9v4.4h-6.9V188.1z M325.7,194.8h9.4c0.7,0,1.2-0.5,1.2-1.2v-6.7c0-0.6-0.5-1.2-1.2-1.2h-9.4
	c-0.7,0-1.2,0.5-1.2,1.2v6.7C324.6,194.3,325.1,194.8,325.7,194.8z"/>
<path fill="#010101" d="M343.4,188.1h6.9v4.4h-6.9V188.1z M342.2,194.8h9.4c0.7,0,1.2-0.5,1.2-1.2v-6.7c0-0.6-0.5-1.2-1.2-1.2h-9.4
	c-0.7,0-1.2,0.5-1.2,1.2v6.7C341,194.3,341.5,194.8,342.2,194.8z"/>
<path fill="#010101" d="M359.9,188.1h6.9v4.4h-6.9V188.1z M358.6,194.8h9.4c0.7,0,1.2-0.5,1.2-1.2v-6.7c0-0.6-0.5-1.2-1.2-1.2h-9.4
	c-0.7,0-1.2,0.5-1.2,1.2v6.7C357.4,194.3,358,194.8,358.6,194.8z"/>
<path fill="#010101" d="M376.4,188.1h6.9v4.4h-6.9V188.1z M375.2,194.8h9.2c0.7,0,1.2-0.5,1.2-1.2v-6.7c0-0.6-0.5-1.2-1.2-1.2h-9.4
	c-0.7,0-1.2,0.5-1.2,1.2v6.7C373.9,194.3,374.4,194.8,375.2,194.8L375.2,194.8z"/>
<path fill="#010101" d="M392.8,188.1h6.9v4.4h-6.9V188.1z M391.6,194.8h9.4c0.7,0,1.2-0.5,1.2-1.2v-6.7c0-0.6-0.5-1.2-1.2-1.2h-9.4
	c-0.7,0-1.2,0.5-1.2,1.2v6.7C390.3,194.3,391,194.8,391.6,194.8z"/>
<path fill="#010101" d="M409.3,188.1h6.9v4.4h-6.9V188.1z M408.1,194.8h9.4c0.7,0,1.2-0.5,1.2-1.2v-6.7c0-0.6-0.5-1.2-1.2-1.2h-9.4
	c-0.7,0-1.2,0.5-1.2,1.2v6.7C406.9,194.3,407.4,194.8,408.1,194.8z"/>
<path fill="#010101" d="M425.9,188.1h6.9v4.4h-6.9V188.1z M424.5,194.8h9.4c0.7,0,1.2-0.5,1.2-1.2v-6.7c0-0.6-0.5-1.2-1.2-1.2h-9.4
	c-0.7,0-1.2,0.5-1.2,1.2v6.7C423.3,194.3,423.9,194.8,424.5,194.8z"/>
<path fill="#010101" d="M326.9,200.3h6.9v4.4h-6.9V200.3z M325.7,207h9.4c0.7,0,1.2-0.5,1.2-1.2v-6.7c0-0.6-0.5-1.2-1.2-1.2h-9.4
	c-0.7,0-1.2,0.5-1.2,1.2v6.7C324.6,206.5,325.1,207,325.7,207z"/>
<path fill="#010101" d="M343.4,200.3h6.9v4.4h-6.9V200.3z M342.2,207h9.4c0.7,0,1.2-0.5,1.2-1.2v-6.7c0-0.6-0.5-1.2-1.2-1.2h-9.4
	c-0.7,0-1.2,0.5-1.2,1.2v6.7C341,206.5,341.5,207,342.2,207z"/>
<path fill="#010101" d="M359.9,200.3h6.9v4.4h-6.9V200.3z M358.6,207h9.4c0.7,0,1.2-0.5,1.2-1.2v-6.7c0-0.6-0.5-1.2-1.2-1.2h-9.4
	c-0.7,0-1.2,0.5-1.2,1.2v6.7C357.4,206.5,358,207,358.6,207z"/>
<path fill="#010101" d="M376.4,200.3h6.9v4.4h-6.9V200.3z M375.2,207h9.2c0.7,0,1.2-0.5,1.2-1.2v-6.7c0-0.6-0.5-1.2-1.2-1.2h-9.4
	c-0.7,0-1.2,0.5-1.2,1.2v6.7C373.9,206.5,374.4,207,375.2,207L375.2,207z"/>
<path fill="#010101" d="M392.8,200.3h6.9v4.4h-6.9V200.3z M391.6,207h9.4c0.7,0,1.2-0.5,1.2-1.2v-6.7c0-0.6-0.5-1.2-1.2-1.2h-9.4
	c-0.7,0-1.2,0.5-1.2,1.2v6.7C390.3,206.5,391,207,391.6,207z"/>
<path fill="#010101" d="M409.3,200.3h6.9v4.4h-6.9V200.3z M408.1,207h9.4c0.7,0,1.2-0.5,1.2-1.2v-6.7c0-0.6-0.5-1.2-1.2-1.2h-9.4
	c-0.7,0-1.2,0.5-1.2,1.2v6.7C406.9,206.5,407.4,207,408.1,207z"/>
<path fill="#010101" d="M425.9,200.3h6.9v4.4h-6.9V200.3z M424.5,207h9.4c0.7,0,1.2-0.5,1.2-1.2v-6.7c0-0.6-0.5-1.2-1.2-1.2h-9.4
	c-0.7,0-1.2,0.5-1.2,1.2v6.7C423.3,206.5,423.9,207,424.5,207z"/>
<path fill="#010101" d="M326.9,212.5h6.9v4.4h-6.9V212.5z M325.7,219.4h9.4c0.7,0,1.2-0.5,1.2-1.2v-6.7c0-0.6-0.5-1.2-1.2-1.2h-9.4
	c-0.7,0-1.2,0.5-1.2,1.2v6.7C324.6,218.7,325.1,219.4,325.7,219.4z"/>
<path fill="#010101" d="M343.4,212.5h39.9v4.4h-39.9V212.5z M342.2,219.4h42.3c0.7,0,1.2-0.5,1.2-1.2v-6.7c0-0.6-0.5-1.2-1.2-1.2
	h-42.3c-0.7,0-1.2,0.5-1.2,1.2v6.7C341,218.7,341.5,219.4,342.2,219.4z"/>
<path fill="#010101" d="M392.8,212.5h6.9v4.4h-6.9V212.5z M391.6,219.4h9.4c0.7,0,1.2-0.5,1.2-1.2v-6.7c0-0.6-0.5-1.2-1.2-1.2h-9.4
	c-0.7,0-1.2,0.5-1.2,1.2v6.7C390.3,218.7,391,219.4,391.6,219.4z"/>
<path fill="#010101" d="M409.3,212.5h6.9v4.4h-6.9V212.5z M408.1,219.4h9.4c0.7,0,1.2-0.5,1.2-1.2v-6.7c0-0.6-0.5-1.2-1.2-1.2h-9.4
	c-0.7,0-1.2,0.5-1.2,1.2v6.7C406.9,218.7,407.4,219.4,408.1,219.4z"/>
<path fill="#010101" d="M425.9,212.5h6.9v4.4h-6.9V212.5z M424.5,219.4h9.4c0.7,0,1.2-0.5,1.2-1.2v-6.7c0-0.6-0.5-1.2-1.2-1.2h-9.4
	c-0.7,0-1.2,0.5-1.2,1.2v6.7C423.3,218.7,423.9,219.4,424.5,219.4z"/>
<ellipse fill="#B6DCB6" cx="375.1" cy="149.9" rx="4.6" ry="4.5"/>
<ellipse fill="#B6DCB6" cx="405.5" cy="312.6" rx="4.6" ry="4.5"/>
<ellipse fill="#B6DCB6" cx="278.6" cy="258.6" rx="4.6" ry="4.5"/>
<rect x="326.7" y="175.8" fill="#B6DCB6" width="7.1" height="4.3"/>
<rect x="326.7" y="212.6" fill="#B6DCB6" width="7.1" height="4.3"/>
<rect x="326.7" y="188.2" fill="#B6DCB6" width="7.1" height="4.3"/>
<rect x="326.7" y="200.2" fill="#B6DCB6" width="7.1" height="4.3"/>
<rect x="343.5" y="175.8" fill="#B6DCB6" width="7.1" height="4.3"/>
<rect x="343.5" y="188.2" fill="#B6DCB6" width="7.1" height="4.3"/>
<rect x="343.5" y="200.2" fill="#B6DCB6" width="7.1" height="4.3"/>
<rect x="376.5" y="175.8" fill="#B6DCB6" width="7.1" height="4.3"/>
<rect x="376.5" y="188.2" fill="#B6DCB6" width="7.1" height="4.3"/>
<rect x="376.1" y="200.2" fill="#B6DCB6" width="7.1" height="4.3"/>
<rect x="359.8" y="175.8" fill="#B6DCB6" width="7.1" height="4.3"/>
<rect x="359.8" y="188.2" fill="#B6DCB6" width="7.1" height="4.3"/>
<rect x="359.8" y="200.2" fill="#B6DCB6" width="7.1" height="4.3"/>
<rect x="425.9" y="175.8" fill="#B6DCB6" width="7.1" height="4.3"/>
<rect x="409.1" y="175.8" fill="#B6DCB6" width="7.1" height="4.3"/>
<rect x="425.9" y="188.2" fill="#B6DCB6" width="7.1" height="4.3"/>
<rect x="409.1" y="188.2" fill="#B6DCB6" width="7.1" height="4.3"/>
<rect x="409.1" y="200.2" fill="#B6DCB6" width="7.1" height="4.3"/>
<rect x="425.9" y="200.2" fill="#B6DCB6" width="7.1" height="4.3"/>
<rect x="425.9" y="212.6" fill="#B6DCB6" width="7.1" height="4.3"/>
<rect x="409.1" y="212.6" fill="#B6DCB6" width="7.1" height="4.3"/>
<rect x="392.8" y="175.8" fill="#B6DCB6" width="7.1" height="4.3"/>
<rect x="392.8" y="188.2" fill="#B6DCB6" width="7.1" height="4.3"/>
<rect x="392.8" y="200.2" fill="#B6DCB6" width="7.1" height="4.3"/>
<rect x="392.8" y="212.6" fill="#B6DCB6" width="7.1" height="4.3"/>
<rect x="343.5" y="212.6" fill="#B6DCB6" width="39.7" height="4.3"/>
</svg>
