<?xml version="1.0" encoding="utf-8"?>
<!-- Generator: Adobe Illustrator 17.1.0, SVG Export Plug-In . SVG Version: 6.00 Build 0)  -->
<!DOCTYPE svg PUBLIC "-//W3C//DTD SVG 1.1//EN" "http://www.w3.org/Graphics/SVG/1.1/DTD/svg11.dtd">
<svg version="1.1" id="Layer_1" xmlns="http://www.w3.org/2000/svg" xmlns:xlink="http://www.w3.org/1999/xlink" x="0px" y="0px"
	 viewBox="0 0 600 600" enable-background="new 0 0 600 600" xml:space="preserve">
<rect y="169.1" fill="none" width="600" height="45.9"/>
<text transform="matrix(1 0 0 1 115.3157 189.9815)" font-family="'MyriadPro-Regular'" font-size="25">Looking at job ads for trends (cont.)</text>
<g>
	<path d="M71.5,394H57.9v-16.9h8.8v4.4c0,0.2,0.1,0.3,0.3,0.3h4.6L71.5,394z M67.2,377.5l3.9,3.7h-3.9V377.5z M72,381.4
		C72,381.4,72,381.3,72,381.4l-4.9-4.7l-0.1-0.1l0,0h-9.3c-0.2,0-0.3,0.1-0.3,0.3v17.4c0,0.2,0.1,0.3,0.3,0.3h14.2
		c0.2,0,0.3-0.1,0.3-0.3v-1.1v-11.7C72.1,381.5,72.1,381.4,72,381.4L72,381.4z"/>
	<path d="M69.6,385.5h-2.2v-2h2.2V385.5z M69.8,383.1h-2.6c-0.1,0-0.2,0.1-0.2,0.2v2.4c0,0.1,0.1,0.2,0.2,0.2h2.6
		c0.1,0,0.2-0.1,0.2-0.2v-2.4C70,383.2,69.9,383.1,69.8,383.1L69.8,383.1z"/>
	<path d="M68,385.1l0.1,0.1l0,0c0,0,0.1,0,0.1-0.1l1.1-1c0.1-0.1,0.1-0.2,0-0.3c-0.1-0.1-0.2-0.1-0.3,0l-0.9,0.8l-0.3-0.4
		c-0.1-0.1-0.2-0.1-0.3-0.1c-0.1,0.1-0.1,0.2-0.1,0.3L68,385.1z"/>
	<path d="M69.6,388.7h-2.2v-2h2.2V388.7z M69.8,386.3h-2.6c-0.1,0-0.2,0.1-0.2,0.2v2.4c0,0.1,0.1,0.2,0.2,0.2h2.6
		c0.1,0,0.2-0.1,0.2-0.2v-2.4C70,386.4,69.9,386.3,69.8,386.3L69.8,386.3z"/>
	<path d="M68,388.1l0.1,0.1l0,0c0,0,0.1,0,0.1-0.1l1.1-1c0.1-0.1,0.1-0.2,0-0.3c-0.1-0.1-0.2-0.1-0.3,0l-0.9,0.8l-0.3-0.4
		c-0.1-0.1-0.2-0.1-0.3-0.1c-0.1,0.1-0.1,0.2-0.1,0.3L68,388.1z"/>
	<path d="M69.6,392h-2.2v-2h2.2V392z M69.8,389.7h-2.6c-0.1,0-0.2,0.1-0.2,0.2v2.4c0,0.1,0.1,0.2,0.2,0.2h2.6c0.1,0,0.2-0.1,0.2-0.2
		v-2.4C70,389.7,69.9,389.7,69.8,389.7L69.8,389.7z"/>
	<path d="M68,391.5l0.1,0.1l0,0c0,0,0.1,0,0.1-0.1l1.1-1c0.1-0.1,0.1-0.2,0-0.3c-0.1-0.1-0.2-0.1-0.3,0l-0.9,0.8l-0.3-0.4
		c-0.1-0.1-0.2-0.1-0.3-0.1c-0.1,0-0.1,0.2-0.1,0.3L68,391.5z"/>
	<path d="M59.6,382.7c0-0.8,0.6-1.4,1.4-1.4h1.9c0.8,0,1.4,0.6,1.4,1.4v0.6h-4.6L59.6,382.7z M61.9,378.2c0.6,0,1.1,0.5,1.1,1.1
		c0,0.6-0.5,1.1-1.1,1.1c-0.6,0-1.1-0.5-1.1-1.1C60.8,378.7,61.3,378.2,61.9,378.2z M59.3,383.8h5.2c0.2,0,0.3-0.1,0.3-0.3v-0.8
		c0-1.1-0.9-1.9-1.9-1.9l0,0c0.5-0.3,0.8-0.8,0.8-1.4c0-0.9-0.8-1.7-1.7-1.7c-0.9,0-1.7,0.8-1.7,1.7c0,0.6,0.3,1.1,0.8,1.4H61
		c-1.1,0-1.9,0.9-1.9,1.9v0.8C59.1,383.7,59.2,383.8,59.3,383.8L59.3,383.8z"/>
	<path d="M59.4,384.9c-0.2,0-0.3,0.1-0.3,0.3c0,0.2,0.1,0.3,0.3,0.3h5.3c0.2,0,0.3-0.1,0.3-0.3c0-0.2-0.1-0.3-0.3-0.3H59.4z"/>
	<path d="M64.7,386.7h-5.3c-0.2,0-0.3,0.1-0.3,0.3c0,0.2,0.1,0.3,0.3,0.3h5.3c0.2,0,0.3-0.1,0.3-0.3C65,386.9,64.9,386.7,64.7,386.7
		L64.7,386.7z"/>
	<path d="M64.9,388.6h-5.6c-0.1,0-0.1,0.1-0.1,0.3c0,0.2,0.1,0.3,0.1,0.3h5.6c0.1,0,0.1-0.1,0.1-0.3S65,388.6,64.9,388.6L64.9,388.6
		z"/>
	<path d="M64.9,390.5h-5.6c-0.1,0-0.1,0.1-0.1,0.3c0,0.2,0.1,0.3,0.1,0.3h5.6c0.1,0,0.1-0.1,0.1-0.3S65,390.5,64.9,390.5L64.9,390.5
		z"/>
	<path d="M64.9,392.4h-5.6c-0.1,0-0.1,0.1-0.1,0.3c0,0.2,0.1,0.3,0.1,0.3h5.6c0.1,0,0.1-0.1,0.1-0.3S65,392.4,64.9,392.4z"/>
</g>
<g>
	<path d="M93.1,394H79.5v-16.9h8.8v4.4c0,0.2,0.1,0.3,0.3,0.3h4.6L93.1,394z M88.8,377.5l3.9,3.7h-3.9V377.5z M93.6,381.4
		C93.6,381.4,93.6,381.3,93.6,381.4l-4.9-4.7l-0.1-0.1h-0.1h-9.3c-0.2,0-0.3,0.1-0.3,0.3v17.4c0,0.2,0.1,0.3,0.3,0.3h14.2
		c0.2,0,0.3-0.1,0.3-0.3v-1.1L93.6,381.4C93.6,381.5,93.6,381.4,93.6,381.4L93.6,381.4z"/>
	<path d="M91.2,385.5H89v-2h2.2V385.5z M91.4,383.1h-2.6c-0.1,0-0.2,0.1-0.2,0.2v2.4c0,0.1,0.1,0.2,0.2,0.2h2.6
		c0.1,0,0.2-0.1,0.2-0.2v-2.4C91.5,383.2,91.5,383.1,91.4,383.1L91.4,383.1z"/>
	<path d="M89.6,385.1l0.1,0.1l0,0c0,0,0.1,0,0.1-0.1l1.1-1c0.1-0.1,0.1-0.2,0-0.3c-0.1-0.1-0.2-0.1-0.3,0l-0.9,0.8l-0.3-0.4
		c-0.1-0.1-0.2-0.1-0.3-0.1c-0.1,0.1-0.1,0.2-0.1,0.3L89.6,385.1z"/>
	<path d="M91.2,388.7H89v-2h2.2V388.7z M91.4,386.3h-2.6c-0.1,0-0.2,0.1-0.2,0.2v2.4c0,0.1,0.1,0.2,0.2,0.2h2.6
		c0.1,0,0.2-0.1,0.2-0.2v-2.4C91.6,386.4,91.5,386.3,91.4,386.3L91.4,386.3z"/>
	<path d="M89.6,388.1l0.1,0.1l0,0c0,0,0.1,0,0.1-0.1l1.1-1c0.1-0.1,0.1-0.2,0-0.3c-0.1-0.1-0.2-0.1-0.3,0l-0.9,0.8l-0.3-0.4
		c-0.1-0.1-0.2-0.1-0.3-0.1c-0.1,0.1-0.1,0.2-0.1,0.3L89.6,388.1z"/>
	<path d="M91.2,392H89v-2h2.2V392z M91.4,389.7h-2.6c-0.1,0-0.2,0.1-0.2,0.2v2.4c0,0.1,0.1,0.2,0.2,0.2h2.6c0.1,0,0.2-0.1,0.2-0.2
		v-2.4C91.6,389.7,91.5,389.7,91.4,389.7L91.4,389.7z"/>
	<path d="M89.5,391.5l0.1,0.1l0,0c0,0,0.1,0,0.1-0.1l1.1-1c0.1-0.1,0.1-0.2,0-0.3c-0.1-0.1-0.2-0.1-0.3,0l-0.9,0.8l-0.3-0.4
		c-0.1-0.1-0.2-0.1-0.3-0.1c-0.1,0-0.1,0.2-0.1,0.3L89.5,391.5z"/>
	<path d="M81.2,382.7c0-0.8,0.6-1.4,1.4-1.4h1.9c0.8,0,1.4,0.6,1.4,1.4v0.6h-4.6L81.2,382.7z M83.5,378.2c0.6,0,1.1,0.5,1.1,1.1
		c0,0.6-0.5,1.1-1.1,1.1s-1.1-0.5-1.1-1.1C82.4,378.7,82.9,378.2,83.5,378.2z M80.9,383.8h5.2c0.2,0,0.3-0.1,0.3-0.3v-0.8
		c0-1.1-0.9-1.9-1.9-1.9l0,0c0.5-0.3,0.8-0.8,0.8-1.4c0-0.9-0.8-1.7-1.7-1.7s-1.7,0.8-1.7,1.7c0,0.6,0.3,1.1,0.8,1.4h-0.1
		c-1.1,0-1.9,0.9-1.9,1.9v0.8C80.6,383.7,80.8,383.8,80.9,383.8L80.9,383.8z"/>
	<path d="M81,384.9c-0.2,0-0.3,0.1-0.3,0.3c0,0.2,0.1,0.3,0.3,0.3h5.3c0.2,0,0.3-0.1,0.3-0.3c0-0.2-0.1-0.3-0.3-0.3H81z"/>
	<path d="M86.3,386.7H81c-0.2,0-0.3,0.1-0.3,0.3c0,0.2,0.1,0.3,0.3,0.3h5.3c0.2,0,0.3-0.1,0.3-0.3C86.5,386.9,86.4,386.7,86.3,386.7
		L86.3,386.7z"/>
	<path d="M86.5,388.6h-5.6c-0.1,0-0.1,0.1-0.1,0.3c0,0.2,0.1,0.3,0.1,0.3h5.6c0.1,0,0.1-0.1,0.1-0.3S86.6,388.6,86.5,388.6
		L86.5,388.6z"/>
	<path d="M86.5,390.5h-5.6c-0.1,0-0.1,0.1-0.1,0.3c0,0.2,0.1,0.3,0.1,0.3h5.6c0.1,0,0.1-0.1,0.1-0.3S86.6,390.5,86.5,390.5
		L86.5,390.5z"/>
	<path d="M86.5,392.4h-5.6c-0.1,0-0.1,0.1-0.1,0.3c0,0.2,0.1,0.3,0.1,0.3h5.6c0.1,0,0.1-0.1,0.1-0.3S86.6,392.4,86.5,392.4z"/>
</g>
<path d="M114.7,394H101v-16.9h8.8v4.4c0,0.2,0.1,0.3,0.3,0.3h4.6L114.7,394z M110.4,377.5l3.9,3.7h-3.9V377.5z M115.2,381.4
	C115.2,381.4,115.2,381.3,115.2,381.4l-4.9-4.7l-0.1-0.1h-0.1h-9.3c-0.2,0-0.3,0.1-0.3,0.3v17.4c0,0.2,0.1,0.3,0.3,0.3H115
	c0.2,0,0.3-0.1,0.3-0.3v-1.1L115.2,381.4C115.2,381.5,115.2,381.4,115.2,381.4L115.2,381.4z"/>
<path d="M112.7,385.5h-2.2v-2h2.2V385.5z M112.9,383.1h-2.6c-0.1,0-0.2,0.1-0.2,0.2v2.4c0,0.1,0.1,0.2,0.2,0.2h2.6
	c0.1,0,0.2-0.1,0.2-0.2v-2.4C113.1,383.2,113,383.1,112.9,383.1L112.9,383.1z"/>
<path d="M111.2,385.1l0.1,0.1l0,0c0,0,0.1,0,0.1-0.1l1.1-1c0.1-0.1,0.1-0.2,0-0.3c-0.1-0.1-0.2-0.1-0.3,0l-0.9,0.8l-0.3-0.4
	c-0.1-0.1-0.2-0.1-0.3-0.1c-0.1,0.1-0.1,0.2-0.1,0.3L111.2,385.1z"/>
<path d="M112.8,388.7h-2.2v-2h2.2V388.7z M113,386.3h-2.6c-0.1,0-0.2,0.1-0.2,0.2v2.4c0,0.1,0.1,0.2,0.2,0.2h2.6
	c0.1,0,0.2-0.1,0.2-0.2v-2.4C113.1,386.4,113.1,386.3,113,386.3L113,386.3z"/>
<path d="M111.2,388.1l0.1,0.1l0,0c0,0,0.1,0,0.1-0.1l1.1-1c0.1-0.1,0.1-0.2,0-0.3c-0.1-0.1-0.2-0.1-0.3,0l-0.9,0.8l-0.3-0.4
	c-0.1-0.1-0.2-0.1-0.3-0.1c-0.1,0.1-0.1,0.2-0.1,0.3L111.2,388.1z"/>
<path d="M112.8,392h-2.2v-2h2.2V392z M113,389.7h-2.6c-0.1,0-0.2,0.1-0.2,0.2v2.4c0,0.1,0.1,0.2,0.2,0.2h2.6c0.1,0,0.2-0.1,0.2-0.2
	v-2.4C113.1,389.7,113.1,389.7,113,389.7L113,389.7z"/>
<path d="M111.1,391.5l0.1,0.1l0,0c0,0,0.1,0,0.1-0.1l1.1-1c0.1-0.1,0.1-0.2,0-0.3c-0.1-0.1-0.2-0.1-0.3,0l-0.9,0.8l-0.3-0.4
	c-0.1-0.1-0.2-0.1-0.3-0.1s-0.1,0.2-0.1,0.3L111.1,391.5z"/>
<path d="M102.8,382.7c0-0.8,0.6-1.4,1.4-1.4h1.8c0.8,0,1.4,0.6,1.4,1.4v0.6h-4.6V382.7z M105.1,378.2c0.6,0,1.1,0.5,1.1,1.1
	c0,0.6-0.5,1.1-1.1,1.1s-1.1-0.5-1.1-1.1C104,378.7,104.5,378.2,105.1,378.2z M102.5,383.8h5.2c0.2,0,0.3-0.1,0.3-0.3v-0.8
	c0-1.1-0.9-1.9-1.9-1.9l0,0c0.5-0.3,0.8-0.8,0.8-1.4c0-0.9-0.8-1.7-1.7-1.7s-1.7,0.8-1.7,1.7c0,0.6,0.3,1.1,0.8,1.4h-0.1
	c-1.1,0-1.9,0.9-1.9,1.9v0.8C102.2,383.7,102.3,383.8,102.5,383.8L102.5,383.8z"/>
<path d="M102.6,384.9c-0.2,0-0.3,0.1-0.3,0.3c0,0.2,0.1,0.3,0.3,0.3h5.3c0.2,0,0.3-0.1,0.3-0.3c0-0.2-0.1-0.3-0.3-0.3H102.6z"/>
<path d="M107.8,386.7h-5.3c-0.2,0-0.3,0.1-0.3,0.3c0,0.2,0.1,0.3,0.3,0.3h5.3c0.2,0,0.3-0.1,0.3-0.3
	C108.1,386.9,108,386.7,107.8,386.7L107.8,386.7z"/>
<path d="M108.1,388.6h-5.6c-0.1,0-0.1,0.1-0.1,0.3c0,0.2,0.1,0.3,0.1,0.3h5.6c0.1,0,0.1-0.1,0.1-0.3S108.1,388.6,108.1,388.6
	L108.1,388.6z"/>
<path d="M108.1,390.5h-5.6c-0.1,0-0.1,0.1-0.1,0.3c0,0.2,0.1,0.3,0.1,0.3h5.6c0.1,0,0.1-0.1,0.1-0.3S108.1,390.5,108.1,390.5
	L108.1,390.5z"/>
<path d="M108.1,392.4h-5.6c-0.1,0-0.1,0.1-0.1,0.3c0,0.2,0.1,0.3,0.1,0.3h5.6c0.1,0,0.1-0.1,0.1-0.3S108.1,392.4,108.1,392.4z"/>
<g>
	<path d="M71.9,414.2H58.2v-16.9H67v4.4c0,0.2,0.1,0.3,0.3,0.3h4.6L71.9,414.2z M67.6,397.7l3.9,3.7h-3.9V397.7z M72.4,401.6
		C72.4,401.5,72.4,401.5,72.4,401.6l-4.9-4.7l-0.1-0.1h-0.1H58c-0.2,0-0.3,0.1-0.3,0.3v17.4c0,0.2,0.1,0.3,0.3,0.3h14.2
		c0.2,0,0.3-0.1,0.3-0.3v-1.1L72.4,401.6C72.4,401.7,72.4,401.6,72.4,401.6L72.4,401.6z"/>
	<path d="M69.9,405.7h-2.2v-2h2.2V405.7z M70.1,403.3h-2.6c-0.1,0-0.2,0.1-0.2,0.2v2.4c0,0.1,0.1,0.2,0.2,0.2h2.6
		c0.1,0,0.2-0.1,0.2-0.2v-2.4C70.3,403.4,70.2,403.3,70.1,403.3L70.1,403.3z"/>
	<path d="M68.4,405.2l0.1,0.1l0,0c0,0,0.1,0,0.1-0.1l1.1-1c0.1-0.1,0.1-0.2,0-0.3c-0.1-0.1-0.2-0.1-0.3,0l-0.9,0.8l-0.3-0.4
		c-0.1-0.1-0.2-0.1-0.3-0.1c-0.1,0-0.1,0.2-0.1,0.3L68.4,405.2z"/>
	<path d="M70,408.9h-2.2v-2H70V408.9z M70.2,406.5h-2.6c-0.1,0-0.2,0.1-0.2,0.2v2.4c0,0.1,0.1,0.2,0.2,0.2h2.6
		c0.1,0,0.2-0.1,0.2-0.2v-2.4C70.3,406.6,70.3,406.5,70.2,406.5L70.2,406.5z"/>
	<path d="M68.4,408.3l0.1,0.1l0,0c0,0,0.1,0,0.1-0.1l1.1-1c0.1-0.1,0.1-0.2,0-0.3c-0.1-0.1-0.2-0.1-0.3,0l-0.9,0.8l-0.3-0.4
		c-0.1-0.1-0.2-0.1-0.3-0.1c-0.1,0-0.1,0.2-0.1,0.3L68.4,408.3z"/>
	<path d="M70,412.2h-2.2v-2H70V412.2z M70.2,409.8h-2.6c-0.1,0-0.2,0.1-0.2,0.2v2.4c0,0.1,0.1,0.2,0.2,0.2h2.6
		c0.1,0,0.2-0.1,0.2-0.2V410C70.3,409.9,70.3,409.8,70.2,409.8L70.2,409.8z"/>
	<path d="M68.3,411.7l0.1,0.1l0,0c0,0,0.1,0,0.1-0.1l1.1-1c0.1-0.1,0.1-0.2,0-0.3c-0.1-0.1-0.2-0.1-0.3,0l-0.9,0.8l-0.3-0.4
		c-0.1-0.1-0.2-0.1-0.3-0.1c-0.1,0.1-0.1,0.2-0.1,0.3L68.3,411.7z"/>
	<path d="M60,402.9c0-0.8,0.6-1.4,1.4-1.4h1.9c0.8,0,1.4,0.6,1.4,1.4v0.6H60V402.9z M62.3,398.4c0.6,0,1.1,0.5,1.1,1.1
		s-0.5,1.1-1.1,1.1s-1.1-0.5-1.1-1.1C61.2,398.9,61.7,398.4,62.3,398.4z M59.7,404h5.2c0.2,0,0.3-0.1,0.3-0.3v-0.8
		c0-1.1-0.9-1.9-1.9-1.9l0,0c0.5-0.3,0.8-0.8,0.8-1.4c0-0.9-0.8-1.7-1.7-1.7c-0.9,0-1.7,0.8-1.7,1.7c0,0.6,0.3,1.1,0.8,1.4h-0.1
		c-1.1,0-1.9,0.9-1.9,1.9v0.8C59.4,403.8,59.5,404,59.7,404L59.7,404z"/>
	<path d="M59.8,405.1c-0.2,0-0.3,0.1-0.3,0.3c0,0.2,0.1,0.3,0.3,0.3h5.3c0.2,0,0.3-0.1,0.3-0.3c0-0.2-0.1-0.3-0.3-0.3H59.8z"/>
	<path d="M65,406.9h-5.3c-0.2,0-0.3,0.1-0.3,0.3c0,0.2,0.1,0.3,0.3,0.3H65c0.2,0,0.3-0.1,0.3-0.3C65.3,407.1,65.2,406.9,65,406.9
		L65,406.9z"/>
	<path d="M65.3,408.8h-5.6c-0.1,0-0.1,0.1-0.1,0.3c0,0.2,0.1,0.3,0.1,0.3h5.6c0.1,0,0.1-0.1,0.1-0.3
		C65.4,408.9,65.3,408.8,65.3,408.8L65.3,408.8z"/>
	<path d="M65.3,410.7h-5.6c-0.1,0-0.1,0.1-0.1,0.3c0,0.2,0.1,0.3,0.1,0.3h5.6c0.1,0,0.1-0.1,0.1-0.3
		C65.4,410.8,65.3,410.7,65.3,410.7L65.3,410.7z"/>
	<path d="M65.3,412.5h-5.6c-0.1,0-0.1,0.1-0.1,0.3c0,0.2,0.1,0.3,0.1,0.3h5.6c0.1,0,0.1-0.1,0.1-0.3
		C65.4,412.6,65.3,412.5,65.3,412.5z"/>
</g>
<g>
	<path d="M93.4,414.2H79.8v-16.9h8.8v4.4c0,0.2,0.1,0.3,0.3,0.3h4.6L93.4,414.2z M89.2,397.7l3.9,3.7h-3.9V397.7z M94,401.6
		C93.9,401.5,93.9,401.5,94,401.6l-4.9-4.7l-0.1-0.1h-0.1h-9.3c-0.2,0-0.3,0.1-0.3,0.3v17.4c0,0.2,0.1,0.3,0.3,0.3h14.2
		c0.2,0,0.3-0.1,0.3-0.3v-1.1v-11.7C94,401.7,94,401.6,94,401.6L94,401.6z"/>
	<path d="M91.5,405.7h-2.2v-2h2.2V405.7z M91.7,403.3h-2.6c-0.1,0-0.2,0.1-0.2,0.2v2.4c0,0.1,0.1,0.2,0.2,0.2h2.6
		c0.1,0,0.2-0.1,0.2-0.2v-2.4C91.9,403.4,91.8,403.3,91.7,403.3L91.7,403.3z"/>
	<path d="M89.9,405.2l0.1,0.1l0,0c0,0,0.1,0,0.1-0.1l1.1-1c0.1-0.1,0.1-0.2,0-0.3c-0.1-0.1-0.2-0.1-0.3,0l-0.9,0.8l-0.3-0.4
		c-0.1-0.1-0.2-0.1-0.3-0.1c-0.1,0-0.1,0.2-0.1,0.3L89.9,405.2z"/>
	<path d="M91.5,408.9h-2.2v-2h2.2V408.9z M91.7,406.5h-2.6c-0.1,0-0.2,0.1-0.2,0.2v2.4c0,0.1,0.1,0.2,0.2,0.2h2.6
		c0.1,0,0.2-0.1,0.2-0.2v-2.4C91.9,406.6,91.8,406.5,91.7,406.5L91.7,406.5z"/>
	<path d="M89.9,408.3l0.1,0.1l0,0c0,0,0.1,0,0.1-0.1l1.1-1c0.1-0.1,0.1-0.2,0-0.3c-0.1-0.1-0.2-0.1-0.3,0l-0.9,0.8l-0.3-0.4
		c-0.1-0.1-0.2-0.1-0.3-0.1c-0.1,0-0.1,0.2-0.1,0.3L89.9,408.3z"/>
	<path d="M91.5,412.2h-2.2v-2h2.2V412.2z M91.7,409.8h-2.6c-0.1,0-0.2,0.1-0.2,0.2v2.4c0,0.1,0.1,0.2,0.2,0.2h2.6
		c0.1,0,0.2-0.1,0.2-0.2V410C91.9,409.9,91.8,409.8,91.7,409.8L91.7,409.8z"/>
	<path d="M89.9,411.7l0.1,0.1l0,0c0,0,0.1,0,0.1-0.1l1.1-1c0.1-0.1,0.1-0.2,0-0.3c-0.1-0.1-0.2-0.1-0.3,0l-0.9,0.8l-0.3-0.4
		c-0.1-0.1-0.2-0.1-0.3-0.1c-0.1,0.1-0.1,0.2-0.1,0.3L89.9,411.7z"/>
	<path d="M81.5,402.9c0-0.8,0.6-1.4,1.4-1.4h1.9c0.8,0,1.4,0.6,1.4,1.4v0.6h-4.6L81.5,402.9z M83.9,398.4c0.6,0,1.1,0.5,1.1,1.1
		s-0.5,1.1-1.1,1.1s-1.1-0.5-1.1-1.1C82.7,398.9,83.2,398.4,83.9,398.4z M81.3,404h5.2c0.2,0,0.3-0.1,0.3-0.3v-0.8
		c0-1.1-0.9-1.9-1.9-1.9l0,0c0.5-0.3,0.8-0.8,0.8-1.4c0-0.9-0.8-1.7-1.7-1.7c-0.9,0-1.7,0.8-1.7,1.7c0,0.6,0.3,1.1,0.8,1.4H83
		c-1.1,0-1.9,0.9-1.9,1.9v0.8C81,403.8,81.1,404,81.3,404L81.3,404z"/>
	<path d="M81.3,405.1c-0.2,0-0.3,0.1-0.3,0.3c0,0.2,0.1,0.3,0.3,0.3h5.3c0.2,0,0.3-0.1,0.3-0.3c0-0.2-0.1-0.3-0.3-0.3H81.3z"/>
	<path d="M86.6,406.9h-5.3c-0.2,0-0.3,0.1-0.3,0.3c0,0.2,0.1,0.3,0.3,0.3h5.3c0.2,0,0.3-0.1,0.3-0.3
		C86.9,407.1,86.8,406.9,86.6,406.9L86.6,406.9z"/>
	<path d="M86.8,408.8h-5.6c-0.1,0-0.1,0.1-0.1,0.3c0,0.2,0.1,0.3,0.1,0.3h5.6c0.1,0,0.1-0.1,0.1-0.3C87,408.9,86.9,408.8,86.8,408.8
		L86.8,408.8z"/>
	<path d="M86.8,410.7h-5.6c-0.1,0-0.1,0.1-0.1,0.3c0,0.2,0.1,0.3,0.1,0.3h5.6c0.1,0,0.1-0.1,0.1-0.3C87,410.8,86.9,410.7,86.8,410.7
		L86.8,410.7z"/>
	<path d="M86.8,412.5h-5.6c-0.1,0-0.1,0.1-0.1,0.3c0,0.2,0.1,0.3,0.1,0.3h5.6c0.1,0,0.1-0.1,0.1-0.3C87,412.6,86.9,412.5,86.8,412.5
		z"/>
</g>
<g>
	<path d="M115,414.2h-13.6v-16.9h8.8v4.4c0,0.2,0.1,0.3,0.3,0.3h4.6L115,414.2z M110.7,397.7l3.9,3.7h-3.9V397.7z M115.5,401.6
		C115.5,401.5,115.5,401.5,115.5,401.6l-4.9-4.7l-0.1-0.1h-0.1h-9.3c-0.2,0-0.3,0.1-0.3,0.3v17.4c0,0.2,0.1,0.3,0.3,0.3h14.2
		c0.2,0,0.3-0.1,0.3-0.3v-1.1L115.5,401.6C115.6,401.7,115.6,401.6,115.5,401.6L115.5,401.6z"/>
	<path d="M113.1,405.7h-2.2v-2h2.2V405.7z M113.3,403.3h-2.6c-0.1,0-0.2,0.1-0.2,0.2v2.4c0,0.1,0.1,0.2,0.2,0.2h2.6
		c0.1,0,0.2-0.1,0.2-0.2v-2.4C113.5,403.4,113.4,403.3,113.3,403.3L113.3,403.3z"/>
	<path d="M111.5,405.2l0.1,0.1l0,0c0,0,0.1,0,0.1-0.1l1.1-1c0.1-0.1,0.1-0.2,0-0.3c-0.1-0.1-0.2-0.1-0.3,0l-0.9,0.8l-0.3-0.4
		c-0.1-0.1-0.2-0.1-0.3-0.1s-0.1,0.2-0.1,0.3L111.5,405.2z"/>
	<path d="M113.1,408.9h-2.2v-2h2.2V408.9z M113.3,406.5h-2.6c-0.1,0-0.2,0.1-0.2,0.2v2.4c0,0.1,0.1,0.2,0.2,0.2h2.6
		c0.1,0,0.2-0.1,0.2-0.2v-2.4C113.5,406.6,113.4,406.5,113.3,406.5L113.3,406.5z"/>
	<path d="M111.5,408.3l0.1,0.1l0,0c0,0,0.1,0,0.1-0.1l1.1-1c0.1-0.1,0.1-0.2,0-0.3c-0.1-0.1-0.2-0.1-0.3,0l-0.9,0.8l-0.3-0.4
		c-0.1-0.1-0.2-0.1-0.3-0.1s-0.1,0.2-0.1,0.3L111.5,408.3z"/>
	<path d="M113.1,412.2h-2.2v-2h2.2V412.2z M113.3,409.8h-2.6c-0.1,0-0.2,0.1-0.2,0.2v2.4c0,0.1,0.1,0.2,0.2,0.2h2.6
		c0.1,0,0.2-0.1,0.2-0.2V410C113.5,409.9,113.4,409.8,113.3,409.8L113.3,409.8z"/>
	<path d="M111.5,411.7l0.1,0.1l0,0c0,0,0.1,0,0.1-0.1l1.1-1c0.1-0.1,0.1-0.2,0-0.3c-0.1-0.1-0.2-0.1-0.3,0l-0.9,0.8l-0.3-0.4
		c-0.1-0.1-0.2-0.1-0.3-0.1c-0.1,0.1-0.1,0.2-0.1,0.3L111.5,411.7z"/>
	<path d="M103.1,402.9c0-0.8,0.6-1.4,1.4-1.4h1.9c0.8,0,1.4,0.6,1.4,1.4v0.6h-4.6L103.1,402.9z M105.4,398.4c0.6,0,1.1,0.5,1.1,1.1
		s-0.5,1.1-1.1,1.1s-1.1-0.5-1.1-1.1S104.8,398.4,105.4,398.4z M102.8,404h5.2c0.2,0,0.3-0.1,0.3-0.3v-0.8c0-1.1-0.9-1.9-1.9-1.9
		l0,0c0.5-0.3,0.8-0.8,0.8-1.4c0-0.9-0.8-1.7-1.7-1.7c-0.9,0-1.7,0.8-1.7,1.7c0,0.6,0.3,1.1,0.8,1.4h-0.1c-1.1,0-1.9,0.9-1.9,1.9
		v0.8C102.6,403.8,102.7,404,102.8,404L102.8,404z"/>
	<path d="M102.9,405.1c-0.2,0-0.3,0.1-0.3,0.3c0,0.2,0.1,0.3,0.3,0.3h5.3c0.2,0,0.3-0.1,0.3-0.3c0-0.2-0.1-0.3-0.3-0.3H102.9z"/>
	<path d="M108.2,406.9h-5.3c-0.2,0-0.3,0.1-0.3,0.3c0,0.2,0.1,0.3,0.3,0.3h5.3c0.2,0,0.3-0.1,0.3-0.3
		C108.5,407.1,108.4,406.9,108.2,406.9L108.2,406.9z"/>
	<path d="M108.4,408.8h-5.6c-0.1,0-0.1,0.1-0.1,0.3c0,0.2,0.1,0.3,0.1,0.3h5.6c0.1,0,0.1-0.1,0.1-0.3
		C108.6,408.9,108.5,408.8,108.4,408.8L108.4,408.8z"/>
	<path d="M108.4,410.7h-5.6c-0.1,0-0.1,0.1-0.1,0.3c0,0.2,0.1,0.3,0.1,0.3h5.6c0.1,0,0.1-0.1,0.1-0.3
		C108.6,410.8,108.5,410.7,108.4,410.7L108.4,410.7z"/>
	<path d="M108.4,412.5h-5.6c-0.1,0-0.1,0.1-0.1,0.3c0,0.2,0.1,0.3,0.1,0.3h5.6c0.1,0,0.1-0.1,0.1-0.3
		C108.6,412.6,108.5,412.5,108.4,412.5z"/>
</g>
<g>
	<path d="M71.9,434.1H58.3v-16.9h8.8v4.4c0,0.2,0.1,0.3,0.3,0.3H72L71.9,434.1z M67.7,417.6l3.9,3.7h-3.9V417.6z M72.5,421.5
		C72.4,421.4,72.4,421.4,72.5,421.5l-4.9-4.7l-0.1-0.1h-0.1H58c-0.2,0-0.3,0.1-0.3,0.3v17.4c0,0.2,0.1,0.3,0.3,0.3h14.2
		c0.2,0,0.3-0.1,0.3-0.3v-1.1V421.5C72.5,421.6,72.5,421.5,72.5,421.5L72.5,421.5z"/>
	<path d="M70,425.6h-2.2v-2H70V425.6z M70.2,423.2h-2.6c-0.1,0-0.2,0.1-0.2,0.2v2.4c0,0.1,0.1,0.2,0.2,0.2h2.6
		c0.1,0,0.2-0.1,0.2-0.2v-2.4C70.4,423.3,70.3,423.2,70.2,423.2L70.2,423.2z"/>
	<path d="M68.4,425.2l0.1,0.1l0,0c0,0,0.1,0,0.1-0.1l1.1-1c0.1-0.1,0.1-0.2,0-0.3c-0.1-0.1-0.2-0.1-0.3,0l-0.9,0.8l-0.3-0.4
		c-0.1-0.1-0.2-0.1-0.3-0.1c-0.1,0.1-0.1,0.2-0.1,0.3L68.4,425.2z"/>
	<path d="M70.1,428.8h-2.2v-2h2.2V428.8z M70.2,426.4h-2.6c-0.1,0-0.2,0.1-0.2,0.2v2.4c0,0.1,0.1,0.2,0.2,0.2h2.6
		c0.1,0,0.2-0.1,0.2-0.2v-2.4C70.4,426.5,70.3,426.4,70.2,426.4L70.2,426.4z"/>
	<path d="M68.4,428.2l0.1,0.1l0,0c0,0,0.1,0,0.1-0.1l1.1-1c0.1-0.1,0.1-0.2,0-0.3c-0.1-0.1-0.2-0.1-0.3,0l-0.9,0.8l-0.3-0.4
		c-0.1-0.1-0.2-0.1-0.3-0.1c-0.1,0.1-0.1,0.2-0.1,0.3L68.4,428.2z"/>
	<path d="M70.1,432.1h-2.2v-2h2.2V432.1z M70.2,429.7h-2.6c-0.1,0-0.2,0.1-0.2,0.2v2.4c0,0.1,0.1,0.2,0.2,0.2h2.6
		c0.1,0,0.2-0.1,0.2-0.2v-2.4C70.4,429.8,70.3,429.7,70.2,429.7L70.2,429.7z"/>
	<path d="M68.4,431.6l0.1,0.1l0,0c0,0,0.1,0,0.1-0.1l1.1-1c0.1-0.1,0.1-0.2,0-0.3c-0.1-0.1-0.2-0.1-0.3,0l-0.9,0.8l-0.3-0.4
		c-0.1-0.1-0.2-0.1-0.3-0.1c-0.1,0,0.1,0.3,0.1,0.4L68.4,431.6z"/>
	<path d="M60,422.8c0-0.8,0.6-1.4,1.4-1.4h1.9c0.8,0,1.4,0.6,1.4,1.4v0.6H60V422.8z M62.4,418.3c0.6,0,1.1,0.5,1.1,1.1
		s-0.5,1.1-1.1,1.1s-1.1-0.5-1.1-1.1C61.2,418.8,61.8,418.3,62.4,418.3z M59.8,423.9H65c0.2,0,0.3-0.1,0.3-0.3v-0.8
		c0-1.1-0.9-1.9-1.9-1.9l0,0c0.5-0.3,0.8-0.8,0.8-1.4c0-0.9-0.8-1.7-1.7-1.7c-0.9,0-1.7,0.8-1.7,1.7c0,0.6,0.3,1.1,0.8,1.4h-0.1
		c-1.1,0-1.9,0.9-1.9,1.9v0.8C59.5,423.8,59.6,423.9,59.8,423.9L59.8,423.9z"/>
	<path d="M59.8,425c-0.2,0-0.3,0.1-0.3,0.3c0,0.2,0.1,0.3,0.3,0.3h5.3c0.2,0,0.3-0.1,0.3-0.3c0-0.2-0.1-0.3-0.3-0.3H59.8z"/>
	<path d="M65.1,426.8h-5.3c-0.2,0-0.3,0.1-0.3,0.3c0,0.2,0.1,0.3,0.3,0.3h5.3c0.2,0,0.3-0.1,0.3-0.3C65.4,427,65.3,426.8,65.1,426.8
		L65.1,426.8z"/>
	<path d="M65.3,428.7h-5.6c-0.1,0-0.1,0.1-0.1,0.3c0,0.2,0.1,0.3,0.1,0.3h5.6c0.1,0,0.1-0.1,0.1-0.3
		C65.5,428.8,65.4,428.7,65.3,428.7L65.3,428.7z"/>
	<path d="M65.3,430.6h-5.6c-0.1,0-0.1,0.1-0.1,0.3c0,0.2,0.1,0.3,0.1,0.3h5.6c0.1,0,0.1-0.1,0.1-0.3
		C65.5,430.7,65.4,430.6,65.3,430.6L65.3,430.6z"/>
	<path d="M65.3,432.5h-5.6c-0.1,0-0.1,0.1-0.1,0.3c0,0.2,0.1,0.3,0.1,0.3h5.6c0.1,0,0.1-0.1,0.1-0.3
		C65.5,432.6,65.4,432.5,65.3,432.5z"/>
</g>
<g>
	<path d="M93.5,434.1H79.9v-16.9h8.8v4.4c0,0.2,0.1,0.3,0.3,0.3h4.6L93.5,434.1z M89.2,417.6l3.9,3.7h-3.9V417.6z M94,421.5
		C94,421.4,94,421.4,94,421.5l-4.9-4.7l-0.1-0.1l0,0h-9.3c-0.2,0-0.3,0.1-0.3,0.3v17.4c0,0.2,0.1,0.3,0.3,0.3h14.2
		c0.2,0,0.3-0.1,0.3-0.3v-1.1v-11.7C94.1,421.6,94.1,421.5,94,421.5L94,421.5z"/>
	<path d="M91.6,425.6h-2.2v-2h2.2V425.6z M91.8,423.2h-2.6c-0.1,0-0.2,0.1-0.2,0.2v2.4c0,0.1,0.1,0.2,0.2,0.2h2.6
		c0.1,0,0.2-0.1,0.2-0.2v-2.4C92,423.3,91.9,423.2,91.8,423.2L91.8,423.2z"/>
	<path d="M90,425.2l0.1,0.1l0,0c0,0,0.1,0,0.1-0.1l1.1-1c0.1-0.1,0.1-0.2,0-0.3c-0.1-0.1-0.2-0.1-0.3,0l-0.9,0.8l-0.3-0.4
		c-0.1-0.1-0.2-0.1-0.3-0.1c-0.1,0.1-0.1,0.2-0.1,0.3L90,425.2z"/>
	<path d="M91.6,428.8h-2.2v-2h2.2V428.8z M91.8,426.4h-2.6c-0.1,0-0.2,0.1-0.2,0.2v2.4c0,0.1,0.1,0.2,0.2,0.2h2.6
		c0.1,0,0.2-0.1,0.2-0.2v-2.4C92,426.5,91.9,426.4,91.8,426.4L91.8,426.4z"/>
	<path d="M90,428.2l0.1,0.1l0,0c0,0,0.1,0,0.1-0.1l1.1-1c0.1-0.1,0.1-0.2,0-0.3c-0.1-0.1-0.2-0.1-0.3,0l-0.9,0.8l-0.3-0.4
		c-0.1-0.1-0.2-0.1-0.3-0.1c-0.1,0.1-0.1,0.2-0.1,0.3L90,428.2z"/>
	<path d="M91.6,432.1h-2.2v-2h2.2V432.1z M91.8,429.7h-2.6c-0.1,0-0.2,0.1-0.2,0.2v2.4c0,0.1,0.1,0.2,0.2,0.2h2.6
		c0.1,0,0.2-0.1,0.2-0.2v-2.4C92,429.8,91.9,429.7,91.8,429.7L91.8,429.7z"/>
	<path d="M90,431.6l0.1,0.1l0,0c0,0,0.1,0,0.1-0.1l1.1-1c0.1-0.1,0.1-0.2,0-0.3c-0.1-0.1-0.2-0.1-0.3,0l-0.9,0.8l-0.3-0.4
		c-0.1-0.1-0.2-0.1-0.3-0.1c-0.1,0-0.1,0.2-0.1,0.3L90,431.6z"/>
	<path d="M81.6,422.8c0-0.8,0.6-1.4,1.4-1.4h1.9c0.8,0,1.4,0.6,1.4,1.4v0.6h-4.6L81.6,422.8z M84,418.3c0.6,0,1.1,0.5,1.1,1.1
		s-0.5,1.1-1.1,1.1s-1.1-0.5-1.1-1.1C82.8,418.8,83.3,418.3,84,418.3z M81.3,423.9h5.2c0.2,0,0.3-0.1,0.3-0.3v-0.8
		c0-1.1-0.9-1.9-1.9-1.9l0,0c0.5-0.3,0.8-0.8,0.8-1.4c0-0.9-0.8-1.7-1.7-1.7c-0.9,0-1.7,0.8-1.7,1.7c0,0.6,0.3,1.1,0.8,1.4H83
		c-1.1,0-1.9,0.9-1.9,1.9v0.8C81.1,423.8,81.2,423.9,81.3,423.9L81.3,423.9z"/>
	<path d="M81.4,425c-0.2,0-0.3,0.1-0.3,0.3c0,0.2,0.1,0.3,0.3,0.3h5.3c0.2,0,0.3-0.1,0.3-0.3c0-0.2-0.1-0.3-0.3-0.3H81.4z"/>
	<path d="M86.7,426.8h-5.3c-0.2,0-0.3,0.1-0.3,0.3c0,0.2,0.1,0.3,0.3,0.3h5.3c0.2,0,0.3-0.1,0.3-0.3C87,427,86.9,426.8,86.7,426.8
		L86.7,426.8z"/>
	<path d="M86.9,428.7h-5.6c-0.1,0-0.1,0.1-0.1,0.3c0,0.2,0.1,0.3,0.1,0.3h5.6c0.1,0,0.1-0.1,0.1-0.3C87.1,428.8,87,428.7,86.9,428.7
		L86.9,428.7z"/>
	<path d="M86.9,430.6h-5.6c-0.1,0-0.1,0.1-0.1,0.3c0,0.2,0.1,0.3,0.1,0.3h5.6c0.1,0,0.1-0.1,0.1-0.3C87.1,430.7,87,430.6,86.9,430.6
		L86.9,430.6z"/>
	<path d="M86.9,432.5h-5.6c-0.1,0-0.1,0.1-0.1,0.3c0,0.2,0.1,0.3,0.1,0.3h5.6c0.1,0,0.1-0.1,0.1-0.3C87.1,432.6,87,432.5,86.9,432.5
		z"/>
</g>
<g>
	<path d="M115.1,434.1h-13.6v-16.9h8.8v4.4c0,0.2,0.1,0.3,0.3,0.3h4.6L115.1,434.1z M110.8,417.6l3.9,3.7h-3.9V417.6z M115.6,421.5
		C115.6,421.4,115.6,421.4,115.6,421.5l-4.9-4.7l-0.1-0.1h-0.1h-9.3c-0.2,0-0.3,0.1-0.3,0.3v17.4c0,0.2,0.1,0.3,0.3,0.3h14.2
		c0.2,0,0.3-0.1,0.3-0.3v-1.1L115.6,421.5C115.6,421.6,115.6,421.5,115.6,421.5L115.6,421.5z"/>
	<path d="M113.2,425.6H111v-2h2.2V425.6z M113.4,423.2h-2.6c-0.1,0-0.2,0.1-0.2,0.2v2.4c0,0.1,0.1,0.2,0.2,0.2h2.6
		c0.1,0,0.2-0.1,0.2-0.2v-2.4C113.5,423.3,113.5,423.2,113.4,423.2L113.4,423.2z"/>
	<path d="M111.6,425.2l0.1,0.1l0,0c0,0,0.1,0,0.1-0.1l1.1-1c0.1-0.1,0.1-0.2,0-0.3c-0.1-0.1-0.2-0.1-0.3,0l-0.9,0.8l-0.3-0.4
		c-0.1-0.1-0.2-0.1-0.3-0.1c-0.1,0.1-0.1,0.2-0.1,0.3L111.6,425.2z"/>
	<path d="M113.2,428.8H111v-2h2.2V428.8z M113.4,426.4h-2.6c-0.1,0-0.2,0.1-0.2,0.2v2.4c0,0.1,0.1,0.2,0.2,0.2h2.6
		c0.1,0,0.2-0.1,0.2-0.2v-2.4C113.6,426.5,113.5,426.4,113.4,426.4L113.4,426.4z"/>
	<path d="M111.6,428.2l0.1,0.1l0,0c0,0,0.1,0,0.1-0.1l1.1-1c0.1-0.1,0.1-0.2,0-0.3c-0.1-0.1-0.2-0.1-0.3,0l-0.9,0.8l-0.3-0.4
		c-0.1-0.1-0.2-0.1-0.3-0.1c-0.1,0.1-0.1,0.2-0.1,0.3L111.6,428.2z"/>
	<path d="M113.2,432.1H111v-2h2.2V432.1z M113.4,429.7h-2.6c-0.1,0-0.2,0.1-0.2,0.2v2.4c0,0.1,0.1,0.2,0.2,0.2h2.6
		c0.1,0,0.2-0.1,0.2-0.2v-2.4C113.6,429.8,113.5,429.7,113.4,429.7L113.4,429.7z"/>
	<path d="M111.5,431.6l0.1,0.1l0,0c0,0,0.1,0,0.1-0.1l1.1-1c0.1-0.1,0.1-0.2,0-0.3c-0.1-0.1-0.2-0.1-0.3,0l-0.9,0.8l-0.3-0.4
		c-0.1-0.1-0.2-0.1-0.3-0.1c-0.1,0.1-0.1,0.2-0.1,0.3L111.5,431.6z"/>
	<path d="M103.2,422.8c0-0.8,0.6-1.4,1.4-1.4h1.9c0.8,0,1.4,0.6,1.4,1.4v0.6h-4.6L103.2,422.8z M105.5,418.3c0.6,0,1.1,0.5,1.1,1.1
		s-0.5,1.1-1.1,1.1s-1.1-0.5-1.1-1.1S104.9,418.3,105.5,418.3z M102.9,423.9h5.2c0.2,0,0.3-0.1,0.3-0.3v-0.8c0-1.1-0.9-1.9-1.9-1.9
		l0,0c0.5-0.3,0.8-0.8,0.8-1.4c0-0.9-0.8-1.7-1.7-1.7c-0.9,0-1.7,0.8-1.7,1.7c0,0.6,0.3,1.1,0.8,1.4h-0.1c-1.1,0-1.9,0.9-1.9,1.9
		v0.8C102.6,423.8,102.8,423.9,102.9,423.9L102.9,423.9z"/>
	<path d="M103,425c-0.2,0-0.3,0.1-0.3,0.3c0,0.2,0.1,0.3,0.3,0.3h5.3c0.2,0,0.3-0.1,0.3-0.3c0-0.2-0.1-0.3-0.3-0.3H103z"/>
	<path d="M108.3,426.8H103c-0.2,0-0.3,0.1-0.3,0.3c0,0.2,0.1,0.3,0.3,0.3h5.3c0.2,0,0.3-0.1,0.3-0.3
		C108.6,427,108.4,426.8,108.3,426.8L108.3,426.8z"/>
	<path d="M108.5,428.7h-5.6c-0.1,0-0.1,0.1-0.1,0.3c0,0.2,0.1,0.3,0.1,0.3h5.6c0.1,0,0.1-0.1,0.1-0.3
		C108.6,428.8,108.6,428.7,108.5,428.7L108.5,428.7z"/>
	<path d="M108.5,430.6h-5.6c-0.1,0-0.1,0.1-0.1,0.3c0,0.2,0.1,0.3,0.1,0.3h5.6c0.1,0,0.1-0.1,0.1-0.3S108.6,430.6,108.5,430.6
		L108.5,430.6z"/>
	<path d="M108.5,432.5h-5.6c-0.1,0-0.1,0.1-0.1,0.3c0,0.2,0.1,0.3,0.1,0.3h5.6c0.1,0,0.1-0.1,0.1-0.3S108.6,432.5,108.5,432.5z"/>
</g>
<g>
	<path d="M144.5,403.5L144.5,403.5c-1.8,0-3.6,0.7-4.9,2.1c-1.7,1.8-2.4,4.4-1.7,6.8c0.6,2.4,2.5,4.3,4.8,4.9c2.4,0.7,4.9,0,6.6-1.8
		c1.3-1.3,2-3.1,2-5s-0.7-3.7-2-5C148.1,404.2,146.3,403.5,144.5,403.5L144.5,403.5z M144.5,418.6c-1.5,0-3-0.4-4.2-1.3
		c-2-1.3-3.4-3.5-3.6-5.9c-0.3-2.4,0.6-4.9,2.3-6.6c1.5-1.5,3.5-2.4,5.6-2.4s4.1,0.8,5.6,2.4c1.5,1.5,2.3,3.6,2.3,5.7
		s-0.8,4.2-2.3,5.7C148.6,417.7,146.6,418.6,144.5,418.6L144.5,418.6z"/>
	<path d="M146.2,405.8c-0.7-0.2-1.4-0.3-2.1-0.2l-0.2-1c0.9-0.1,1.8-0.1,2.6,0.2L146.2,405.8z"/>
	<path d="M138.1,415.4l-7,7.1c-0.1,0.1-0.1,0.3,0,0.5l1.1,1.1c0.1,0.1,0.3,0.1,0.4,0l7-7.1C139.1,416.5,138.6,416,138.1,415.4
		L138.1,415.4z M132.5,425.2c-0.4,0-0.7-0.1-1-0.4l-1.1-1.1c-0.5-0.5-0.5-1.4,0-2l7.4-7.6c0.1-0.1,0.3-0.2,0.4-0.2
		c0.2,0,0.3,0.1,0.4,0.2c0.5,0.9,1.3,1.6,2.1,2.2c0.1,0.1,0.2,0.2,0.2,0.4c0,0.2,0,0.3-0.1,0.4l-7.4,7.6
		C133.2,425.1,132.8,425.2,132.5,425.2L132.5,425.2z"/>
	<path d="M154.7,400.7h4.8l-4.8-4.9V400.7z M160.8,401.7h-6.6c-0.1,0-0.3-0.1-0.4-0.2s-0.2-0.2-0.2-0.4v-6.7c0-0.2,0.1-0.4,0.3-0.5
		s0.4,0,0.6,0.1l6.6,6.7c0.1,0.2,0.2,0.4,0.1,0.6C161.2,401.6,161,401.7,160.8,401.7L160.8,401.7z"/>
	<path d="M160.8,425.5h-22.4c-0.1,0-0.3-0.1-0.4-0.2s-0.2-0.2-0.2-0.4v-3.1h1v2.6h21.3v-23L154,395h-15v7.7h-1v-8.3
		c0-0.3,0.2-0.5,0.5-0.5h15.8c0.1,0,0.3,0.1,0.4,0.2l6.6,6.7c0.1,0.1,0.2,0.2,0.2,0.4v23.7c0,0.1-0.1,0.3-0.2,0.4
		C161.1,425.4,161,425.5,160.8,425.5L160.8,425.5z"/>
	<rect x="141.4" y="408.9" width="1" height="4.3"/>
	<rect x="143.7" y="410.2" width="1" height="3.1"/>
	<rect x="146.3" y="407.7" width="1" height="5.5"/>
	<rect x="148.9" y="419.9" width="4.9" height="1.1"/>
	<rect x="148.9" y="423.2" width="4.9" height="1.1"/>
	<rect x="140" y="423" width="7.3" height="1.1"/>
	<rect x="140.3" y="419.9" width="7.3" height="1.1"/>
	<path d="M141.5,400.1c0-0.7,0.6-1.3,1.3-1.3h1.8c0.7,0,1.3,0.6,1.3,1.3v0.5h-4.4V400.1z M143.8,395.8c0.6,0,1.1,0.5,1.1,1.1
		s-0.5,1.1-1.1,1.1s-1.1-0.5-1.1-1.1C142.7,396.3,143.2,395.8,143.8,395.8z M141.3,401.2h4.9c0.2,0,0.3-0.1,0.3-0.3v-0.8
		c0-1-0.8-1.8-1.8-1.8l0,0c0.4-0.3,0.7-0.8,0.7-1.4c0-0.9-0.7-1.6-1.6-1.6s-1.6,0.7-1.6,1.6c0,0.6,0.3,1.1,0.7,1.4h-0.1
		c-1,0-1.8,0.8-1.8,1.8v0.8C141,401,141.2,401.2,141.3,401.2L141.3,401.2z"/>
	<path d="M157.4,408.2h-3.2v-3h3.2V408.2z M157.7,404.7H154c-0.2,0-0.3,0.1-0.3,0.3v3.5c0,0.2,0.1,0.3,0.3,0.3h3.7
		c0.2,0,0.3-0.1,0.3-0.3V405C157.9,404.8,157.8,404.7,157.7,404.7L157.7,404.7z"/>
	<path d="M155.2,407.6c0.1,0.1,0.1,0.1,0.2,0.1l0,0c0.1,0,0.1,0,0.2-0.1l1.6-1.4c0.1-0.1,0.1-0.3,0-0.4c-0.1-0.1-0.3-0.1-0.4,0
		l-1.3,1.2l-0.4-0.6c-0.1-0.1-0.2-0.2-0.4-0.1c-0.1,0.1-0.2,0.2-0.1,0.4L155.2,407.6z"/>
	<path d="M157.5,412.9h-3.2v-3h3.2V412.9z M157.7,409.4H154c-0.2,0-0.3,0.1-0.3,0.3v3.5c0,0.2,0.1,0.3,0.3,0.3h3.7
		c0.2,0,0.3-0.1,0.3-0.3v-3.5C158,409.5,157.9,409.4,157.7,409.4L157.7,409.4z"/>
	<path d="M155.2,412c0.1,0.1,0.1,0.1,0.2,0.1l0,0c0.1,0,0.1,0,0.2-0.1l1.6-1.4c0.1-0.1,0.1-0.3,0-0.4c-0.1-0.1-0.3-0.1-0.4,0
		l-1.3,1.2l-0.4-0.6c-0.1-0.1-0.2-0.2-0.4-0.1s-0.2,0.2-0.1,0.4L155.2,412z"/>
	<path d="M157.5,417.7h-3.2v-3h3.2V417.7z M157.7,414.2H154c-0.2,0-0.3,0.1-0.3,0.3v3.5c0,0.2,0.1,0.3,0.3,0.3h3.7
		c0.2,0,0.3-0.1,0.3-0.3v-3.5C158,414.4,157.9,414.2,157.7,414.2L157.7,414.2z"/>
	<path d="M155.1,417c0.1,0.1,0.1,0.1,0.2,0.1l0,0c0.1,0,0.1,0,0.2-0.1l1.6-1.4c0.1-0.1,0.1-0.3,0-0.4s-0.3-0.1-0.4,0l-1.3,1.2
		l-0.4-0.6c-0.1-0.1-0.2-0.2-0.4-0.1c-0.1,0.1-0.2,0.2-0.1,0.4L155.1,417z"/>
</g>
<rect x="162.4" y="289.7" fill="none" width="196" height="56.4"/>
<text transform="matrix(1 0 0 1 162.4107 300.5877)" font-family="'MyriadPro-Regular'" font-size="13">34% Subject-matter familiarity</text>
<text transform="matrix(1 0 0 1 162.4107 316.1877)" font-family="'MyriadPro-Regular'" font-size="13">24% Specialized doc type skills</text>
<text transform="matrix(1 0 0 1 162.4107 331.7877)" font-family="'MyriadPro-Regular'" font-size="13">17% TW-specific skills</text>
<text transform="matrix(1 0 0 1 162.4107 269.9192)" font-family="'MyriadPro-Regular'" font-size="18">Highlights</text>
<text transform="matrix(1 0 0 1 56.2712 271.4275)" font-family="'MyriadPro-Regular'" font-size="18">Scope: </text>
<text transform="matrix(1 0 0 1 56.2712 285.8275)" font-family="'MyriadPro-Regular'" font-size="12"> </text>
<text transform="matrix(1 0 0 1 56.2712 300.2275)" font-family="'MyriadPro-Regular'" font-size="12">- 2 yrs or less</text>
<text transform="matrix(1 0 0 1 56.2712 314.6275)" font-family="'MyriadPro-Regular'" font-size="12">- “technical writer”</text>
<text transform="matrix(1 0 0 1 56.2712 329.0275)" font-family="'MyriadPro-Regular'" font-size="12">- 327 job ads</text>
<text transform="matrix(1 0 0 1 71.6791 366.7422)" font-family="'MyriadPro-Regular'" font-size="13">2006</text>
<path d="M397.2,228.9c-0.1,0-0.1-0.1-0.1-0.2v-2.3c0.3-0.7,0.5-1.4,0.7-2.1c0.1,0,0.1,0.1,0.2,0.1c0.3,0,0.7-0.4,1.1-1.9
	c0.5-1.6,0.2-2.1-0.2-2.3c1.3-6.1-1.6-6.3-1.6-6.3s-0.4-0.8-1.6-1.4c-0.7-0.4-1.6-0.7-2.7-0.7h-0.6c-0.5,0-0.9,0.1-1.3,0.2
	c-0.5,0.2-1,0.4-1.4,0.7c-0.5,0.3-1,0.7-1.5,1.2c-0.7,0.7-1.3,1.6-1.6,2.8c-0.3,1-0.2,2,0.1,3.1h-0.1c-0.5,0-1,0.4-0.5,2.3
	c0.4,1.5,0.8,1.9,1.1,1.9c0.1,0.9,0.4,1.8,0.9,2.7v2c0,0.1,0,0.2-0.1,0.2c-0.7,0.4-4.4,2.2-7.8,5c-0.6,0.5-1,1.3-1,2.1v3.7v14
	c0,2.1,0.7,4.1,2.1,5.7l2.8,3.3l2.6,32.8c0.1,1.1,1,2,2.2,2h7.3c1.2,0,2.1-0.9,2.2-2l2.5-32.8l2.8-3.3c1.4-1.6,2.1-3.7,2.1-5.8
	v-13.9V236c0-0.8-0.4-1.5-1-2.1C401.6,231.1,398,229.3,397.2,228.9L397.2,228.9z M349.4,252.5l-2.1,2.1l1.8,1.8l2.1-2.1l2.1,2.1
	l1.8-1.8l-2.1-2.1l2.1-2.1l-1.8-1.8l-2.1,2.1l-2.1-2.1l-1.8,1.8L349.4,252.5z M343.6,257.1v-9.3c0-1.6,1.3-3,3-3h9.3
	c1.6,0,3,1.3,3,3v9.3c0,1.6-1.3,3-3,3h-9.4C344.9,260.1,343.6,258.7,343.6,257.1L343.6,257.1z M349.4,230.5l-2.1,2.1l1.8,1.8
	l2.1-2.1l2.1,2.1l1.8-1.8l-2.1-2.1l2.1-2.1l-1.8-1.8l-2.1,2.1l-2.1-2.1l-1.8,1.8L349.4,230.5z M343.6,235.1v-9.3c0-1.6,1.3-3,3-3
	h9.3c1.6,0,3,1.3,3,3v9.3c0,1.6-1.3,3-3,3h-9.4C344.9,238.1,343.6,236.8,343.6,235.1L343.6,235.1z M346.4,274.8l3.5,3.5l1.8-1.8
	l4.2-4.1l-1.8-1.8l-4.1,4.1l-1.7-1.7L346.4,274.8z M343.6,279.1v-9.3c0-1.6,1.3-3,3-3h9.3c1.6,0,3,1.3,3,3v9.3c0,1.6-1.3,3-3,3h-9.4
	C344.9,282.1,343.6,280.7,343.6,279.1L343.6,279.1z M368.8,274.4v-20.3h5.1v-3.4h-5.1v-20.2c0-0.9-0.8-1.7-1.7-1.7h-5.5v3.4h3.8
	v18.6h-3.8v3.4h3.8v18.5h-3.8v3.4h5.5C368,276.1,368.8,275.4,368.8,274.4L368.8,274.4z M436,230.5l2.1-2.1l-1.8-1.8l-2.1,2.1
	l-2.1-2.1l-1.8,1.8l2.1,2.1l-2.1,2.1l1.8,1.8l2.1-2.1l2.1,2.1l1.8-1.8L436,230.5z M441.8,225.8v9.3c0,1.6-1.3,3-3,3h-9.3
	c-1.6,0-3-1.3-3-3v-9.3c0-1.6,1.3-3,3-3h9.3C440.5,222.8,441.8,224.2,441.8,225.8z M436,274.4l2.1-2.1l-1.8-1.8l-2.1,2.2l-2.1-2.1
	l-1.8,1.8l2.1,2.1l-2.1,2.1l1.8,1.8l2.1-2.1l2.1,2.1l1.8-1.8L436,274.4z M441.8,269.8v9.3c0,1.6-1.3,3-3,3h-9.3c-1.6,0-3-1.3-3-3
	v-9.3c0-1.6,1.3-3,3-3h9.3C440.5,266.8,441.8,268.1,441.8,269.8z M439,250.4l-1.8-1.8l-4.2,4.1l-1.7-1.7l-1.8,1.8l3.5,3.5l1.8-1.8
	L439,250.4z M441.8,247.8v9.3c0,1.6-1.3,3-3,3h-9.3c-1.6,0-3-1.3-3-3v-9.3c0-1.6,1.3-3,3-3h9.3C440.5,244.8,441.8,246.2,441.8,247.8
	z M416.6,254.1h-5.1v-3.4h5.1v-20.2c0-0.9,0.8-1.7,1.7-1.7h5.5v3.4H420v18.6h3.8v3.4H420v18.5h3.8v3.4h-5.5c-0.9,0-1.7-0.8-1.7-1.7
	L416.6,254.1z"/>
<path d="M479.8,321.8c3.8,0,6.9-6.6,6.9-10.5c0-3.8-3.1-6.9-6.9-6.9s-6.9,3.1-6.9,6.9C472.8,315.1,475.9,321.8,479.8,321.8z"/>
<path d="M513.7,336c-0.1-1.2-1-2.1-2.2-2l-11,0.1l-8.7-8l0,0c-0.4-0.5-0.9-0.8-1.5-1c-0.4-0.1-5.1-1.8-5.1-1.8l-3.6,5.6l-0.3-4.7
	H478l-0.3,4.7l-3.6-5.6c0,0-4.7,1.7-5.1,1.8c-7.5,2.4-4.1,32.3-1.1,29.7v39.5c0,2.4,2,4.4,4.4,4.4h0.2c2.3,0,4.2-1.8,4.4-4.1l1.8-27
	h2l1.8,27c0.1,2.3,2.1,4.1,4.4,4.1h0.2c2.4,0,4.4-2,4.4-4.4V335l6.3,4l0.4,0.2c0.4,0.3,1,0.4,1.5,0.4l12.1-1.3
	C513,338.2,513.8,337.2,513.7,336L513.7,336z"/>
<path d="M513.7,323.8c-4.6,0-8.4-3.8-8.4-8.4c0-4.6,3.8-8.4,8.4-8.4c4.6,0,8.4,3.8,8.4,8.4C522.1,320,518.4,323.8,513.7,323.8z
	 M527.9,317.7c0.1-0.8,0.2-1.5,0.2-2.3s-0.1-1.6-0.2-2.3H525c-0.3-1.4-0.9-2.8-1.7-4l2.1-2.1c-0.9-1.3-2-2.4-3.3-3.3l-2.1,2.1
	c-1.2-0.8-2.5-1.4-4-1.7v-2.9c-0.8-0.1-1.5-0.2-2.3-0.2s-1.6,0.1-2.3,0.2v2.9c-1.4,0.3-2.8,0.9-4,1.7l-2.1-2.1
	c-1.3,0.9-2.4,2-3.3,3.3l2.1,2.1c-0.8,1.2-1.4,2.5-1.7,4h-2.9c-0.1,0.8-0.2,1.5-0.2,2.3s0.1,1.6,0.2,2.3h2.9c0.3,1.4,0.9,2.8,1.7,4
	l-2.1,2.1c0.9,1.3,2,2.4,3.3,3.3l2.1-2.1c1.2,0.8,2.5,1.4,4,1.7v2.9c0.8,0.1,1.5,0.2,2.3,0.2s1.6-0.1,2.3-0.2v-2.9
	c1.4-0.3,2.8-0.9,4-1.7l2.1,2.1c1.3-0.9,2.4-2,3.3-3.3l-2.1-2.1c0.8-1.2,1.4-2.5,1.7-4H527.9z"/>
<path d="M519.2,315.4c0,3-2.5,5.5-5.5,5.5s-5.5-2.5-5.5-5.5s2.5-5.5,5.5-5.5C516.8,309.9,519.2,312.3,519.2,315.4"/>
<text transform="matrix(1 0 0 1 366.1406 311.9149)" font-family="'MyriadPro-Regular'" font-size="12">Generalist </text>
<text transform="matrix(1 0 0 1 358.4406 326.3149)" font-family="'MyriadPro-Regular'" font-size="12">opportunities</text>
<text transform="matrix(1 0 0 1 456.228 414.9874)" font-family="'MyriadPro-Regular'" font-size="12">Specialist</text>
<text transform="matrix(1 0 0 1 445.628 429.3874)" font-family="'MyriadPro-Regular'" font-size="12">opportunities</text>
<line fill="none" stroke="#000000" stroke-width="2" stroke-miterlimit="10" x1="528.1" y1="197.2" x2="373.7" y2="417.8"/>
</svg>
